<svg width="266" height="213" viewBox="0 0 266 213" fill="none" xmlns="http://www.w3.org/2000/svg">
<ellipse cx="133" cy="192.5" rx="133" ry="20.5" fill="#116EA6"/>
<path d="M213.852 39.4818C215.912 38.6175 217.377 36.493 217.389 33.99C217.402 30.7107 214.921 28.0405 211.846 28.0267C208.772 28.0124 206.268 30.6593 206.254 33.9386C206.244 36.4648 207.719 38.6148 209.802 39.4818C201.235 40.7724 201.623 50.0842 201.623 50.0842L221.883 50.1776C221.883 50.1776 222.345 40.7643 213.852 39.4818Z" fill="#F5F5F5"/>
<path d="M94.1519 4.68206L80.9123 0L67.8015 4.61904C66.1279 5.39752 64.6594 5.86363 64.6594 7.39914V15.0441C64.6594 20.3531 66.072 25.6143 68.9782 30.2589C71.424 34.1673 75.2109 38.192 81.0406 40.75C86.3997 39.0358 90.4002 34.4659 92.8456 30.5574C95.7522 25.9129 97.1643 20.6516 97.1643 15.3426V8.46721C97.1648 6.2779 95.9868 5.20849 94.1519 4.68206Z" fill="#F5F5F5"/>
<path d="M85.3097 17.0239C85.3097 14.9995 83.6683 13.358 81.6439 13.358C79.6195 13.358 77.978 14.9995 77.978 17.0239C77.978 18.6993 79.1087 20.0967 80.6437 20.5342V26.0148H82.6435V20.5342C84.1791 20.0967 85.3097 18.6993 85.3097 17.0239Z" fill="#EBEBEB"/>
<path d="M206.733 75.5466L208.991 76.7689L207.975 78.4675L205.697 77.121L205.738 79.6276H203.791L203.812 77.1L201.533 78.4675L200.538 76.7689L202.796 75.5466L200.538 74.3038L201.533 72.6052L203.812 73.9727L203.791 71.4451H205.738L205.697 73.9727L207.975 72.6052L208.991 74.3038L206.733 75.5466Z" fill="#E0E0E0"/>
<path d="M216.136 75.5466L218.394 76.7689L217.379 78.4675L215.1 77.121L215.142 79.6276H213.195L213.215 77.1L210.936 78.4675L209.942 76.7689L212.2 75.5466L209.942 74.3038L210.936 72.6052L213.215 73.9727L213.195 71.4451H215.142L215.1 73.9727L217.379 72.6052L218.394 74.3038L216.136 75.5466Z" fill="#E0E0E0"/>
<path d="M225.54 75.5466L227.798 76.7689L226.783 78.4675L224.504 77.121L224.546 79.6276H222.599L222.619 77.1L220.34 78.4675L219.346 76.7689L221.604 75.5466L219.346 74.3038L220.34 72.6052L222.619 73.9727L222.599 71.4451H224.546L224.504 73.9727L226.783 72.6052L227.798 74.3038L225.54 75.5466Z" fill="#E0E0E0"/>
<path d="M129.865 182.515V196.397H150.165H172.555V182.515H129.865Z" fill="#F5F5F5"/>
<path d="M128.074 178.634V182.515H174.048V178.634H150.165H128.074Z" fill="#EBEBEB"/>
<path d="M151.061 196.397H172.555V182.515H174.048V178.634H150.165V182.156L151.061 196.397Z" fill="#EBEBEB"/>
<path d="M144.493 184.753H135.836V186.843H144.493V184.753Z" fill="#E0E0E0"/>
<path d="M145.838 189.456H134.722V193.868H145.838V189.456Z" fill="white"/>
<path d="M136.433 164.771V178.652H156.733H179.123V164.771H136.433Z" fill="#F5F5F5"/>
<path d="M134.642 160.89V164.771H180.616V160.89H156.733H134.642Z" fill="#EBEBEB"/>
<path d="M157.629 178.652H179.123V164.771H180.616V160.89H156.733V164.412L157.629 178.652Z" fill="#EBEBEB"/>
<path d="M151.061 167.01H142.404V169.099H151.061V167.01Z" fill="#E0E0E0"/>
<path d="M152.406 171.711H141.29V176.124H152.406V171.711Z" fill="white"/>
<path d="M228.33 196.503C228.33 196.567 185.496 196.619 132.67 196.619C79.8249 196.619 37 196.567 37 196.503C37 196.439 79.8249 196.387 132.67 196.387C185.496 196.387 228.33 196.439 228.33 196.503Z" fill="#263238"/>
<path d="M188.842 87.7307H109.012C107.393 87.7307 106.08 86.4181 106.08 84.7991V11.3533C106.08 9.73422 107.393 8.42126 109.012 8.42126H188.842C190.461 8.42126 191.774 9.73378 191.774 11.3533V84.7986C191.774 86.4177 190.461 87.7307 188.842 87.7307Z" fill="white"/>
<path d="M188.842 87.7306C188.842 87.7306 188.913 87.723 189.053 87.714C189.192 87.7046 189.401 87.6756 189.667 87.5987C189.929 87.5165 190.251 87.3815 190.578 87.1357C190.902 86.8913 191.239 86.5369 191.466 86.048C191.719 85.5649 191.771 84.9545 191.745 84.2873C191.743 83.6192 191.742 82.8885 191.74 82.0975C191.737 80.5146 191.733 78.6887 191.729 76.6334C191.72 68.408 191.708 56.5113 191.692 41.8114C191.687 34.46 191.683 26.4084 191.678 17.7647C191.674 15.6058 191.67 13.4098 191.666 11.1789C191.614 10.0966 190.867 9.07765 189.831 8.70405C189.319 8.49043 188.757 8.52484 188.182 8.5235C187.61 8.52395 187.037 8.52395 186.462 8.5244C181.857 8.52574 177.118 8.52753 172.259 8.52931C152.821 8.532 131.451 8.53512 109.02 8.5387C108.345 8.53959 107.678 8.78627 107.17 9.22825C106.659 9.66486 106.317 10.2914 106.228 10.955C106.182 11.2813 106.201 11.6334 106.197 11.9815V13.0246C106.197 13.7195 106.197 14.4131 106.197 15.1053C106.197 17.8751 106.196 20.6266 106.196 23.3584C106.196 28.8216 106.195 34.2044 106.194 39.4938C106.192 50.0726 106.19 60.2764 106.188 69.9967C106.186 74.857 106.185 79.5963 106.183 84.201C106.185 84.487 106.175 84.7815 106.195 85.0537C106.226 85.3281 106.282 85.6011 106.388 85.8563C106.594 86.3684 106.953 86.8131 107.402 87.1264C107.853 87.4374 108.391 87.6148 108.936 87.6269C109.497 87.6282 110.057 87.63 110.615 87.6313C112.848 87.6322 115.046 87.6336 117.208 87.6345C125.852 87.6394 133.904 87.6443 141.255 87.6488C155.955 87.6644 167.851 87.6769 176.075 87.6859C180.184 87.6953 183.375 87.7028 185.542 87.7078C186.622 87.7127 187.446 87.7167 188.004 87.7194C188.558 87.7225 188.842 87.7306 188.842 87.7306C188.842 87.7306 188.558 87.7386 188.003 87.7426C187.446 87.7453 186.622 87.7489 185.541 87.7542C183.374 87.7592 180.183 87.7668 176.074 87.7761C167.85 87.7851 155.954 87.7976 141.254 87.8132C133.903 87.8177 125.851 87.8222 117.207 87.8275C115.046 87.8284 112.847 87.8298 110.614 87.8307C110.055 87.8298 109.493 87.8284 108.929 87.8275C108.347 87.815 107.769 87.6255 107.286 87.2926C106.804 86.9574 106.42 86.4815 106.198 85.9327C106.085 85.6592 106.023 85.3665 105.991 85.072C105.969 84.7713 105.98 84.4911 105.977 84.2015C105.975 79.5967 105.974 74.8575 105.972 69.9971C105.97 60.2768 105.968 50.0726 105.966 39.4943C105.965 34.2049 105.964 28.8216 105.964 23.3589C105.964 20.6275 105.963 17.8756 105.963 15.1057C105.963 14.4131 105.963 13.7195 105.963 13.025V11.982C105.968 11.6356 105.947 11.2875 105.997 10.9229C106.094 10.2043 106.464 9.52543 107.017 9.05307C107.566 8.5749 108.29 8.30676 109.019 8.30676C131.45 8.30989 152.82 8.31302 172.258 8.3157C177.118 8.31749 181.856 8.31883 186.461 8.32062C187.036 8.32062 187.61 8.32106 188.181 8.32106C188.74 8.32285 189.35 8.28621 189.901 8.51591C191.01 8.91766 191.809 10.0085 191.864 11.1677C191.866 13.4031 191.868 15.6027 191.87 17.7656C191.864 26.4093 191.86 34.4609 191.855 41.8123C191.84 56.5122 191.827 68.4089 191.818 76.6343C191.814 78.6895 191.811 80.5155 191.808 82.0984C191.805 82.8894 191.804 83.6201 191.802 84.2882C191.824 84.95 191.768 85.5837 191.507 86.0695C191.273 86.5646 190.929 86.9212 190.598 87.1652C190.265 87.411 189.938 87.5433 189.672 87.6229C189.403 87.6966 189.193 87.7216 189.053 87.727C188.913 87.731 188.842 87.7306 188.842 87.7306Z" fill="#263238"/>
<path d="M111.066 15.3994C111.884 15.3994 112.547 14.7361 112.547 13.918C112.547 13.0998 111.884 12.4365 111.066 12.4365C110.247 12.4365 109.584 13.0998 109.584 13.918C109.584 14.7361 110.247 15.3994 111.066 15.3994Z" fill="#263238"/>
<path d="M115.393 15.3994C116.211 15.3994 116.874 14.7361 116.874 13.918C116.874 13.0998 116.211 12.4365 115.393 12.4365C114.575 12.4365 113.911 13.0998 113.911 13.918C113.911 14.7361 114.575 15.3994 115.393 15.3994Z" fill="#263238"/>
<path d="M119.719 15.3994C120.538 15.3994 121.201 14.7361 121.201 13.918C121.201 13.0998 120.538 12.4365 119.719 12.4365C118.901 12.4365 118.238 13.0998 118.238 13.918C118.238 14.7361 118.901 15.3994 119.719 15.3994Z" fill="#263238"/>
<path d="M191.774 18.1205C191.774 18.1848 172.589 18.2367 148.929 18.2367C125.261 18.2367 106.08 18.1844 106.08 18.1205C106.08 18.0566 125.261 18.0043 148.929 18.0043C172.589 18.0043 191.774 18.0566 191.774 18.1205Z" fill="#263238"/>
<path d="M161.032 47.9967C161.032 47.9967 161.066 47.9493 161.134 47.859C161.152 47.8362 161.171 47.8112 161.192 47.7831C161.211 47.754 161.229 47.7191 161.25 47.6829C161.291 47.6101 161.343 47.527 161.38 47.4224C161.4 47.371 161.425 47.3178 161.446 47.2593C161.462 47.1999 161.479 47.1373 161.497 47.0712C161.518 47.0059 161.53 46.9357 161.541 46.862C161.55 46.7883 161.57 46.7123 161.573 46.6314C161.608 46.3097 161.586 45.9343 161.522 45.5196C161.394 44.6879 161.041 43.7088 160.501 42.6447C159.962 41.578 159.221 40.4308 158.309 39.235C157.397 38.0386 156.3 36.8034 155.04 35.5629C153.778 34.3236 152.349 33.0791 150.748 31.8993C149.947 31.3103 149.102 30.7392 148.211 30.2015C147.321 29.6621 146.383 29.1594 145.393 28.7237C144.403 28.2933 143.359 27.9184 142.257 27.7405C141.708 27.6561 141.142 27.615 140.585 27.6994C140.307 27.7423 140.034 27.8178 139.777 27.9331C139.524 28.0565 139.291 28.2209 139.099 28.4287C138.914 28.6432 138.776 28.8931 138.682 29.1581C138.597 29.4266 138.551 29.7064 138.541 29.9875C138.52 30.5506 138.625 31.1087 138.771 31.6445C139.073 32.7189 139.565 33.7141 140.104 34.649C140.65 35.583 141.257 36.4584 141.893 37.2812C142.529 38.1052 143.193 38.8801 143.869 39.609C145.224 41.0659 146.623 42.344 147.998 43.4567C149.374 44.5681 150.726 45.5169 152.018 46.2869C153.31 47.0564 154.534 47.6628 155.655 48.0771C156.774 48.4923 157.787 48.7309 158.628 48.764C159.047 48.7805 159.422 48.7591 159.738 48.688C159.818 48.6764 159.891 48.6478 159.963 48.6299C160.035 48.6107 160.104 48.5915 160.166 48.5629C160.229 48.5374 160.289 48.5133 160.346 48.49C160.402 48.4628 160.452 48.4328 160.501 48.4069C160.601 48.3582 160.677 48.2974 160.745 48.2478C160.778 48.2228 160.811 48.2013 160.838 48.1785C160.863 48.1544 160.886 48.1321 160.907 48.1124C160.988 48.036 161.032 47.9967 161.032 47.9967C161.032 47.9967 160.992 48.0387 160.911 48.1191C160.891 48.1392 160.868 48.1616 160.843 48.1866C160.817 48.2098 160.784 48.2317 160.751 48.2572C160.684 48.3077 160.607 48.3698 160.508 48.4199C160.459 48.4467 160.408 48.4771 160.353 48.5048C160.295 48.5285 160.235 48.5535 160.172 48.5794C160.109 48.6085 160.04 48.6281 159.968 48.6482C159.895 48.6665 159.822 48.696 159.741 48.7081C159.424 48.7818 159.047 48.8055 158.626 48.7908C157.781 48.7617 156.764 48.5258 155.642 48.1129C154.517 47.7013 153.289 47.0966 151.994 46.3284C150.698 45.5598 149.343 44.6119 147.963 43.501C146.585 42.3887 145.182 41.1105 143.824 39.6523C143.146 38.9226 142.481 38.1468 141.843 37.3214C141.204 36.4969 140.596 35.6196 140.048 34.6829C139.505 33.7454 139.011 32.7466 138.707 31.6633C138.56 31.123 138.453 30.5591 138.474 29.9861C138.485 29.7001 138.531 29.4141 138.619 29.1384C138.715 28.8653 138.858 28.6079 139.048 28.3858C139.247 28.1709 139.488 28.0011 139.748 27.8741C140.012 27.7553 140.291 27.6784 140.574 27.6346C141.14 27.5488 141.712 27.5908 142.266 27.6762C143.376 27.8554 144.425 28.2325 145.418 28.6647C146.41 29.1022 147.351 29.6067 148.242 30.1475C149.135 30.6873 149.981 31.2598 150.783 31.8506C152.386 33.0335 153.815 34.2816 155.077 35.524C156.338 36.7681 157.434 38.0069 158.345 39.2068C159.256 40.4063 159.996 41.5574 160.534 42.6277C161.072 43.6963 161.421 44.6794 161.547 45.5155C161.609 45.932 161.629 46.3097 161.592 46.6332C161.589 46.7145 161.568 46.791 161.558 46.8651C161.547 46.9393 161.535 47.0099 161.513 47.0756C161.494 47.1418 161.476 47.2043 161.459 47.2642C161.438 47.3223 161.413 47.3759 161.392 47.4273C161.354 47.5323 161.301 47.615 161.258 47.6879C161.236 47.7241 161.219 47.7585 161.198 47.7875C161.177 47.8152 161.157 47.8403 161.139 47.8626C161.069 47.952 161.032 47.9967 161.032 47.9967Z" fill="#FF725E"/>
<path d="M165.089 38.204C165.089 38.204 165.082 38.146 165.073 38.0329C165.071 38.0047 165.069 37.973 165.066 37.9377C165.061 37.9028 165.051 37.8653 165.043 37.8242C165.025 37.742 165.009 37.6459 164.966 37.5431C164.947 37.4913 164.93 37.4354 164.906 37.3782C164.879 37.3228 164.85 37.2647 164.82 37.2035C164.792 37.1409 164.754 37.081 164.713 37.0185C164.671 36.9572 164.636 36.8871 164.584 36.8249C164.396 36.5617 164.13 36.2958 163.806 36.0295C163.156 35.4946 162.242 34.9985 161.13 34.5637C160.018 34.1266 158.701 33.7642 157.224 33.4786C155.747 33.1931 154.107 33.0009 152.34 32.9142C150.574 32.8298 148.679 32.8517 146.699 33.0376C145.709 33.1314 144.698 33.2677 143.675 33.4594C142.652 33.6494 141.617 33.8992 140.588 34.2325C139.563 34.5704 138.535 34.9856 137.594 35.5862C137.128 35.8883 136.679 36.2351 136.319 36.6685C136.141 36.8853 135.987 37.1235 135.872 37.3809C135.766 37.6414 135.701 37.9189 135.696 38.2023C135.701 38.4856 135.765 38.7636 135.871 39.0241C135.986 39.2815 136.139 39.5201 136.318 39.7369C136.677 40.1713 137.127 40.5176 137.593 40.8201C138.533 41.4212 139.562 41.8368 140.588 42.1747C141.616 42.5085 142.652 42.7578 143.675 42.9482C144.698 43.1399 145.709 43.2762 146.699 43.3701C148.679 43.5555 150.574 43.5779 152.341 43.493C154.107 43.4063 155.748 43.2141 157.225 42.9286C158.701 42.643 160.019 42.2806 161.131 41.8435C162.242 41.4087 163.157 40.9126 163.806 40.3777C164.13 40.1114 164.395 39.845 164.583 39.5823C164.636 39.5201 164.671 39.4504 164.713 39.3888C164.753 39.3262 164.792 39.2663 164.82 39.2037C164.85 39.1425 164.879 39.0844 164.906 39.029C164.929 38.9718 164.947 38.9159 164.966 38.8641C165.008 38.7613 165.024 38.6652 165.042 38.583C165.05 38.5419 165.061 38.5044 165.065 38.4695C165.068 38.4346 165.071 38.4029 165.073 38.3743C165.082 38.2621 165.089 38.204 165.089 38.204C165.089 38.204 165.087 38.2621 165.08 38.3757C165.078 38.4043 165.077 38.436 165.074 38.4713C165.07 38.5061 165.06 38.5441 165.053 38.5857C165.036 38.6684 165.021 38.7653 164.98 38.869C164.961 38.9213 164.944 38.9776 164.921 39.0353C164.894 39.0911 164.866 39.1501 164.836 39.2118C164.808 39.2748 164.77 39.3356 164.729 39.3986C164.687 39.4607 164.652 39.5313 164.6 39.5939C164.413 39.8598 164.147 40.1288 163.823 40.3978C163.173 40.9381 162.257 41.4391 161.144 41.8784C160.031 42.3199 158.712 42.6859 157.234 42.9746C155.755 43.2637 154.113 43.4586 152.344 43.5479C150.575 43.6351 148.678 43.615 146.693 43.4309C145.702 43.3375 144.689 43.2016 143.663 43.0103C142.638 42.8204 141.6 42.5706 140.568 42.2363C139.539 41.8976 138.505 41.4811 137.558 40.8756C137.088 40.5703 136.633 40.2209 136.267 39.7793C136.085 39.5586 135.929 39.3146 135.811 39.0505C135.701 38.7823 135.636 38.4954 135.631 38.2027C135.636 37.91 135.702 37.6231 135.812 37.3554C135.93 37.0913 136.086 36.8477 136.269 36.627C136.635 36.1859 137.089 35.836 137.559 35.5317C138.507 34.9266 139.54 34.5101 140.569 34.1718C141.602 33.8375 142.639 33.5877 143.664 33.3982C144.69 33.2069 145.702 33.0711 146.694 32.9777C148.678 32.7936 150.575 32.7735 152.344 32.8606C154.113 32.95 155.755 33.1448 157.234 33.4335C158.712 33.7222 160.031 34.0882 161.144 34.5297C162.257 34.969 163.173 35.4695 163.823 36.0103C164.147 36.2793 164.413 36.5483 164.6 36.8142C164.652 36.8768 164.687 36.9474 164.729 37.0095C164.77 37.0725 164.808 37.1333 164.836 37.1968C164.866 37.2584 164.894 37.3174 164.921 37.3733C164.944 37.4309 164.961 37.4872 164.98 37.5395C165.021 37.6432 165.036 37.7402 165.053 37.8229C165.06 37.8644 165.07 37.902 165.074 37.9373C165.077 37.9726 165.078 38.0043 165.08 38.0329C165.087 38.146 165.089 38.204 165.089 38.204Z" fill="#FF725E"/>
<path d="M159.713 26.0147C159.713 26.0147 159.664 25.9838 159.569 25.9217C159.545 25.9061 159.518 25.8886 159.489 25.8694C159.459 25.852 159.423 25.8368 159.386 25.8185C159.31 25.7823 159.224 25.7362 159.117 25.7063C159.064 25.6898 159.009 25.6692 158.95 25.6527C158.889 25.6406 158.825 25.6277 158.758 25.6138C158.692 25.5973 158.621 25.591 158.546 25.5852C158.472 25.5807 158.395 25.566 158.314 25.5691C157.991 25.5566 157.617 25.6035 157.208 25.6965C156.388 25.8819 155.435 26.3011 154.411 26.9129C153.384 27.5238 152.29 28.3434 151.16 29.335C150.03 30.3271 148.873 31.5065 147.722 32.8494C146.573 34.1936 145.429 35.7045 144.363 37.3835C143.83 38.2232 143.319 39.1058 142.844 40.0318C142.367 40.9568 141.93 41.9275 141.564 42.945C141.203 43.9622 140.901 45.0298 140.799 46.1407C140.753 46.6944 140.751 47.262 140.873 47.8117C140.935 48.0856 141.029 48.3528 141.162 48.6013C141.303 48.8453 141.483 49.0661 141.704 49.2435C141.931 49.4129 142.189 49.5331 142.46 49.6091C142.734 49.6756 143.016 49.7016 143.297 49.6926C143.86 49.6747 144.41 49.5317 144.935 49.3485C145.986 48.9736 146.945 48.4145 147.84 47.8117C148.734 47.203 149.565 46.538 150.342 45.8458C151.121 45.1545 151.848 44.439 152.529 43.7141C153.889 42.2626 155.067 40.7785 156.083 39.3302C157.097 37.8809 157.95 36.4665 158.629 35.124C159.308 33.7825 159.829 32.5191 160.165 31.3724C160.502 30.2279 160.67 29.201 160.645 28.3599C160.633 27.9407 160.586 27.5676 160.493 27.2579C160.476 27.1788 160.442 27.1077 160.419 27.0371C160.395 26.9665 160.371 26.8995 160.339 26.8392C160.309 26.7779 160.281 26.7194 160.254 26.664C160.223 26.6108 160.189 26.5625 160.16 26.5156C160.105 26.4195 160.039 26.3476 159.985 26.2832C159.957 26.2515 159.934 26.2207 159.909 26.1956C159.883 26.172 159.859 26.1505 159.838 26.1317C159.755 26.0549 159.713 26.0147 159.713 26.0147C159.713 26.0147 159.758 26.0517 159.844 26.1264C159.865 26.1451 159.889 26.1661 159.916 26.1894C159.941 26.2144 159.965 26.2448 159.993 26.2765C160.048 26.3404 160.115 26.4119 160.172 26.508C160.202 26.5549 160.236 26.6028 160.267 26.6564C160.295 26.7122 160.324 26.7708 160.355 26.832C160.388 26.8923 160.412 26.9598 160.437 27.0304C160.461 27.1015 160.495 27.1725 160.513 27.2521C160.608 27.5636 160.658 27.9381 160.672 28.359C160.701 29.2037 160.536 30.2342 160.201 31.3827C159.868 32.533 159.35 33.7995 158.672 35.145C157.995 36.4906 157.142 37.9086 156.129 39.3614C155.114 40.8129 153.935 42.3002 152.574 43.7553C151.893 44.4819 151.165 45.1992 150.385 45.8923C149.607 46.5867 148.774 47.2539 147.877 47.8648C146.979 48.4704 146.017 49.0321 144.957 49.4102C144.428 49.5947 143.873 49.74 143.3 49.7583C143.014 49.7673 142.725 49.7409 142.444 49.6725C142.165 49.5948 141.899 49.471 141.664 49.2953C141.436 49.1121 141.25 48.8838 141.105 48.633C140.969 48.3779 140.872 48.1048 140.809 47.8255C140.685 47.266 140.687 46.6927 140.734 46.1345C140.837 45.0146 141.141 43.9429 141.503 42.9227C141.872 41.902 142.31 40.9291 142.788 40.0023C143.265 39.0745 143.779 38.191 144.312 37.3504C145.382 35.6697 146.529 34.1579 147.681 32.8132C148.836 31.4698 149.996 30.2909 151.13 29.2993C152.264 28.3081 153.362 27.4898 154.393 26.8807C155.421 26.2703 156.379 25.8533 157.204 25.671C157.615 25.5798 157.99 25.5342 158.315 25.549C158.397 25.5463 158.474 25.5615 158.549 25.5664C158.624 25.5731 158.695 25.5798 158.762 25.5968C158.829 25.6111 158.893 25.6245 158.954 25.6375C159.013 25.6545 159.068 25.6759 159.121 25.6929C159.228 25.7237 159.315 25.7711 159.39 25.8086C159.428 25.8279 159.463 25.8435 159.494 25.8614C159.523 25.8815 159.549 25.8994 159.573 25.9154C159.666 25.9802 159.713 26.0147 159.713 26.0147Z" fill="#FF725E"/>
<path d="M135.117 45.2095C135.418 45.2095 135.663 44.9648 135.663 44.663C135.663 44.3611 135.418 44.1165 135.117 44.1165C134.815 44.1165 134.57 44.3611 134.57 44.663C134.57 44.9648 134.815 45.2095 135.117 45.2095Z" fill="#FF725E"/>
<path d="M165.786 27.8912C166.088 27.8912 166.332 27.6465 166.332 27.3446C166.332 27.0428 166.088 26.7981 165.786 26.7981C165.484 26.7981 165.239 27.0428 165.239 27.3446C165.239 27.6465 165.484 27.8912 165.786 27.8912Z" fill="#FF725E"/>
<path d="M138.815 46.2123C138.891 46.2123 138.953 46.1501 138.953 46.0733C138.953 45.9966 138.891 45.9343 138.815 45.9343C138.738 45.9343 138.676 45.9966 138.676 46.0733C138.676 46.1501 138.738 46.2123 138.815 46.2123Z" fill="#FF725E"/>
<path d="M141.778 30.901C141.855 30.901 141.917 30.8388 141.917 30.762C141.917 30.6853 141.855 30.623 141.778 30.623C141.702 30.623 141.639 30.6853 141.639 30.762C141.639 30.8388 141.702 30.901 141.778 30.901Z" fill="#FF725E"/>
<path d="M163.449 38.343C163.525 38.343 163.588 38.2808 163.588 38.204C163.588 38.1273 163.525 38.0651 163.449 38.0651C163.372 38.0651 163.31 38.1273 163.31 38.204C163.31 38.2808 163.372 38.343 163.449 38.343Z" fill="#FF725E"/>
<path d="M165.378 31.8694C165.455 31.8694 165.517 31.8072 165.517 31.7304C165.517 31.6537 165.455 31.5914 165.378 31.5914C165.301 31.5914 165.239 31.6537 165.239 31.7304C165.239 31.8072 165.301 31.8694 165.378 31.8694Z" fill="#FF725E"/>
<path d="M156.158 41.2575H154.441V31.9108C154.441 29.7108 152.651 27.921 150.451 27.921C148.251 27.921 146.461 29.7108 146.461 31.9108V41.2575H144.744V31.9108C144.744 28.7638 147.304 26.2036 150.451 26.2036C153.597 26.2036 156.158 28.7638 156.158 31.9108V41.2575H156.158Z" fill="#FF725E"/>
<g opacity="0.3">
<path d="M156.158 41.2575H154.441V31.9108C154.441 29.7108 152.651 27.921 150.451 27.921C148.251 27.921 146.461 29.7108 146.461 31.9108V41.2575H144.744V31.9108C144.744 28.7638 147.304 26.2036 150.451 26.2036C153.597 26.2036 156.158 28.7638 156.158 31.9108V41.2575H156.158Z" fill="black"/>
</g>
<path d="M157.136 46.9684H143.767C143.211 46.9684 142.76 46.5179 142.76 45.962V38.1061C142.76 37.5502 143.211 37.0997 143.767 37.0997H157.136C157.692 37.0997 158.142 37.5502 158.142 38.1061V45.962C158.142 46.5175 157.692 46.9684 157.136 46.9684Z" fill="#FF725E"/>
<g opacity="0.3">
<path d="M151.737 40.7481C151.737 40.038 151.161 39.4624 150.451 39.4624C149.741 39.4624 149.166 40.038 149.166 40.7481C149.166 41.3358 149.562 41.826 150.1 41.9793V43.9014H150.802V41.9793C151.341 41.826 151.737 41.3358 151.737 40.7481Z" fill="black"/>
</g>
<path d="M143.58 46.0325C143.616 46.0325 143.644 44.3868 143.644 42.3568C143.644 40.3268 143.616 38.6812 143.58 38.6812C143.545 38.6812 143.516 40.3268 143.516 42.3568C143.516 44.3868 143.545 46.0325 143.58 46.0325Z" fill="#FAFAFA"/>
<path d="M149.444 42.3963C149.44 42.4025 149.384 42.3762 149.294 42.3109C149.203 42.2461 149.082 42.1348 148.962 41.9731C148.722 41.6585 148.503 41.0873 148.645 40.4706C148.795 39.8553 149.247 39.4432 149.602 39.2694C149.782 39.1787 149.94 39.1335 150.05 39.1161C150.16 39.0982 150.222 39.1 150.223 39.1072C150.228 39.1313 149.979 39.1545 149.645 39.3485C149.317 39.5339 148.907 39.9312 148.77 40.4997C148.638 41.069 148.826 41.6084 149.036 41.9212C149.248 42.2448 149.46 42.3771 149.444 42.3963Z" fill="#FAFAFA"/>
<path d="M173.289 64.2658H125.927C123.628 64.2658 121.764 62.4018 121.764 60.1022V59.5896C121.764 57.2899 123.628 55.4259 125.927 55.4259H173.289C175.588 55.4259 177.452 57.2899 177.452 59.5896V60.1022C177.452 62.4014 175.588 64.2658 173.289 64.2658Z" fill="#F5F5F5"/>
<path d="M173.698 76.3873H126.337C124.037 76.3873 122.173 74.5233 122.173 72.2236V71.711C122.173 69.4113 124.037 67.5474 126.337 67.5474H173.698C175.998 67.5474 177.862 69.4113 177.862 71.711V72.2236C177.862 74.5233 175.998 76.3873 173.698 76.3873Z" fill="#F5F5F5"/>
<path d="M130.565 59.7759V58.4956H131.095V59.7563C131.095 60.1907 131.284 60.3703 131.604 60.3703C131.928 60.3703 132.114 60.1907 132.114 59.7563V58.4956H132.637V59.7759C132.637 60.4485 132.251 60.8212 131.602 60.8212C130.951 60.8212 130.565 60.449 130.565 59.7759Z" fill="#263238"/>
<path d="M132.953 60.6187L133.123 60.2527C133.28 60.3542 133.518 60.4225 133.734 60.4225C133.969 60.4225 134.057 60.3604 134.057 60.2625C134.057 59.9752 132.996 60.2692 132.996 59.5667C132.996 59.2334 133.297 58.9983 133.809 58.9983C134.05 58.9983 134.319 59.0537 134.485 59.152L134.315 59.5144C134.142 59.4166 133.969 59.384 133.809 59.384C133.58 59.384 133.482 59.4559 133.482 59.5475C133.482 59.8478 134.544 59.5574 134.544 60.2496C134.544 60.5763 134.24 60.8082 133.715 60.8082C133.417 60.8082 133.116 60.7264 132.953 60.6187Z" fill="#263238"/>
<path d="M136.569 60.0472H135.24C135.288 60.2662 135.474 60.3998 135.742 60.3998C135.929 60.3998 136.063 60.3444 136.183 60.23L136.454 60.524C136.291 60.7104 136.046 60.8082 135.729 60.8082C135.122 60.8082 134.726 60.4261 134.726 59.9033C134.726 59.3773 135.128 58.9988 135.664 58.9988C136.18 58.9988 136.578 59.3451 136.578 59.91C136.579 59.9493 136.572 60.0047 136.569 60.0472ZM135.233 59.75H136.099C136.063 59.5279 135.896 59.384 135.668 59.384C135.436 59.384 135.269 59.5243 135.233 59.75Z" fill="#263238"/>
<path d="M138.01 58.9988V59.4694C137.967 59.4662 137.935 59.4626 137.895 59.4626C137.614 59.4626 137.428 59.6159 137.428 59.9524V60.7819H136.918V59.0247H137.405V59.2566C137.529 59.0868 137.738 58.9988 138.01 58.9988Z" fill="#263238"/>
<path d="M140.11 59.7759V60.7818H139.6V59.8541C139.6 59.5699 139.469 59.4394 139.244 59.4394C138.999 59.4394 138.823 59.5895 138.823 59.9131V60.7818H138.313V59.0247H138.8V59.2302C138.937 59.0801 139.143 58.9983 139.381 58.9983C139.796 58.9987 140.11 59.2405 140.11 59.7759Z" fill="#263238"/>
<path d="M142.125 59.7795V60.7823H141.649V60.5633C141.554 60.7233 141.371 60.8082 141.113 60.8082C140.701 60.8082 140.457 60.5794 140.457 60.276C140.457 59.9658 140.675 59.75 141.211 59.75H141.616C141.616 59.531 141.485 59.4037 141.211 59.4037C141.025 59.4037 140.832 59.4658 140.705 59.5672L140.522 59.211C140.714 59.0739 140.998 58.9988 141.279 58.9988C141.815 58.9988 142.125 59.2468 142.125 59.7795ZM141.616 60.2268V60.0472H141.266C141.028 60.0472 140.953 60.1352 140.953 60.2527C140.953 60.3801 141.061 60.465 141.24 60.465C141.41 60.465 141.557 60.3868 141.616 60.2268Z" fill="#263238"/>
<path d="M145.555 59.7759V60.7818H145.045V59.8541C145.045 59.5699 144.918 59.4394 144.712 59.4394C144.483 59.4394 144.324 59.5864 144.324 59.8997V60.7818H143.814V59.8541C143.814 59.5699 143.693 59.4394 143.481 59.4394C143.255 59.4394 143.095 59.5864 143.095 59.8997V60.7818H142.586V59.0247H143.072V59.2271C143.203 59.0769 143.399 58.9983 143.624 58.9983C143.869 58.9983 144.078 59.093 144.203 59.2856C144.343 59.106 144.571 58.9983 144.836 58.9983C145.255 58.9987 145.555 59.2405 145.555 59.7759Z" fill="#263238"/>
<path d="M147.744 60.0472H146.414C146.463 60.2662 146.649 60.3998 146.917 60.3998C147.103 60.3998 147.237 60.3444 147.358 60.23L147.629 60.524C147.466 60.7104 147.22 60.8082 146.903 60.8082C146.296 60.8082 145.901 60.4261 145.901 59.9033C145.901 59.3773 146.302 58.9988 146.839 58.9988C147.354 58.9988 147.753 59.3451 147.753 59.91C147.753 59.9493 147.747 60.0047 147.744 60.0472ZM146.408 59.75H147.273C147.237 59.5279 147.071 59.384 146.842 59.384C146.61 59.384 146.444 59.5243 146.408 59.75Z" fill="#263238"/>
<path d="M151.111 59.8871C151.111 60.4717 150.843 60.805 150.441 60.805C150.219 60.805 150.062 60.7072 149.994 60.5208C149.88 60.704 149.693 60.805 149.435 60.805C149.014 60.805 148.681 60.4717 148.681 59.9787C148.681 59.4885 149.01 59.1556 149.435 59.1556C149.651 59.1556 149.821 59.2306 149.939 59.371V59.1779H150.382V60.2361C150.382 60.393 150.451 60.4453 150.54 60.4453C150.69 60.4453 150.781 60.2723 150.781 59.8934C150.781 59.2306 150.291 58.773 149.566 58.773C148.838 58.773 148.351 59.2695 148.351 59.9524C148.351 60.6482 148.828 61.1415 149.553 61.1415C149.759 61.1415 149.991 61.0991 150.197 60.9976L150.301 61.298C150.102 61.3994 149.811 61.4548 149.553 61.4548C148.609 61.4548 147.985 60.8144 147.985 59.9524C147.985 59.0997 148.615 58.4629 149.566 58.4629C150.484 58.4629 151.111 59.0671 151.111 59.8871ZM149.945 59.9787C149.945 59.6945 149.772 59.5345 149.537 59.5345C149.299 59.5345 149.132 59.7012 149.132 59.9787C149.132 60.2594 149.299 60.4292 149.537 60.4292C149.772 60.4292 149.945 60.2661 149.945 59.9787Z" fill="#263238"/>
<path d="M154.443 59.7759V60.7818H153.933V59.8541C153.933 59.5699 153.806 59.4394 153.6 59.4394C153.371 59.4394 153.211 59.5864 153.211 59.8997V60.7818H152.701V59.8541C152.701 59.5699 152.58 59.4394 152.369 59.4394C152.143 59.4394 151.983 59.5864 151.983 59.8997V60.7818H151.473V59.0247H151.96V59.2271C152.091 59.0769 152.286 58.9983 152.512 58.9983C152.757 58.9983 152.966 59.093 153.09 59.2856C153.231 59.106 153.459 58.9983 153.724 58.9983C154.142 58.9987 154.443 59.2405 154.443 59.7759Z" fill="#263238"/>
<path d="M156.455 59.7795V60.7823H155.978V60.5633C155.884 60.7233 155.701 60.8082 155.443 60.8082C155.031 60.8082 154.786 60.5794 154.786 60.276C154.786 59.9658 155.005 59.75 155.54 59.75H155.945C155.945 59.531 155.815 59.4037 155.54 59.4037C155.354 59.4037 155.162 59.4658 155.034 59.5672L154.851 59.211C155.044 59.0739 155.328 58.9988 155.609 58.9988C156.145 58.9988 156.455 59.2468 156.455 59.7795ZM155.945 60.2268V60.0472H155.596C155.358 60.0472 155.283 60.1352 155.283 60.2527C155.283 60.3801 155.39 60.465 155.57 60.465C155.739 60.465 155.886 60.3868 155.945 60.2268Z" fill="#263238"/>
<path d="M156.854 58.4955C156.854 58.3355 156.981 58.2113 157.171 58.2113C157.36 58.2113 157.487 58.3288 157.487 58.4857C157.487 58.6555 157.36 58.7797 157.171 58.7797C156.981 58.7797 156.854 58.6555 156.854 58.4955ZM156.915 59.0246H157.425V60.7818H156.915V59.0246Z" fill="#263238"/>
<path d="M157.899 58.3584H158.408V60.7819H157.899V58.3584Z" fill="#263238"/>
<path d="M158.758 60.4883C158.758 60.2988 158.898 60.1746 159.074 60.1746C159.251 60.1746 159.391 60.2988 159.391 60.4883C159.391 60.6742 159.251 60.8082 159.074 60.8082C158.898 60.8082 158.758 60.6742 158.758 60.4883Z" fill="#263238"/>
<path d="M159.584 59.9033C159.584 59.3742 159.992 58.9988 160.564 58.9988C160.933 58.9988 161.224 59.1588 161.351 59.4461L160.956 59.6584C160.861 59.4917 160.721 59.4166 160.56 59.4166C160.303 59.4166 160.1 59.5963 160.1 59.9033C160.1 60.2103 160.303 60.3899 160.56 60.3899C160.72 60.3899 160.861 60.318 160.956 60.1482L161.351 60.3636C161.224 60.6442 160.933 60.8078 160.564 60.8078C159.992 60.8082 159.584 60.4324 159.584 59.9033Z" fill="#263238"/>
<path d="M161.492 59.9033C161.492 59.3742 161.9 58.9988 162.458 58.9988C163.017 58.9988 163.422 59.3742 163.422 59.9033C163.422 60.4324 163.017 60.8082 162.458 60.8082C161.9 60.8082 161.492 60.4324 161.492 59.9033ZM162.906 59.9033C162.906 59.5994 162.713 59.4166 162.459 59.4166C162.204 59.4166 162.008 59.5994 162.008 59.9033C162.008 60.2072 162.204 60.3899 162.459 60.3899C162.713 60.3899 162.906 60.2072 162.906 59.9033Z" fill="#263238"/>
<path d="M166.731 59.7759V60.7818H166.222V59.8541C166.222 59.5699 166.094 59.4394 165.888 59.4394C165.659 59.4394 165.5 59.5864 165.5 59.8997V60.7818H164.99V59.8541C164.99 59.5699 164.869 59.4394 164.657 59.4394C164.431 59.4394 164.271 59.5864 164.271 59.8997V60.7818H163.762V59.0247H164.249V59.2271C164.379 59.0769 164.575 58.9983 164.801 58.9983C165.045 58.9983 165.255 59.093 165.379 59.2856C165.519 59.106 165.747 58.9983 166.013 58.9983C166.431 58.9987 166.731 59.2405 166.731 59.7759Z" fill="#263238"/>
<path d="M137.39 72.015L138.217 72.4628L137.845 73.0853L137.011 72.5919L137.026 73.5103H136.312L136.32 72.5843L135.485 73.0853L135.121 72.4628L135.948 72.015L135.121 71.5596L135.485 70.9371L136.32 71.438L136.312 70.5121H137.026L137.011 71.438L137.845 70.9371L138.217 71.5596L137.39 72.015Z" fill="#263238"/>
<path d="M140.834 72.015L141.661 72.4628L141.289 73.0853L140.455 72.5919L140.47 73.5103H139.756L139.764 72.5843L138.929 73.0853L138.565 72.4628L139.393 72.015L138.565 71.5596L138.929 70.9371L139.764 71.438L139.756 70.5121H140.47L140.455 71.438L141.289 70.9371L141.661 71.5596L140.834 72.015Z" fill="#263238"/>
<path d="M144.278 72.015L145.105 72.4628L144.733 73.0853L143.898 72.5919L143.914 73.5103H143.2L143.208 72.5843L142.373 73.0853L142.009 72.4628L142.837 72.015L142.009 71.5596L142.373 70.9371L143.208 71.438L143.2 70.5121H143.914L143.898 71.438L144.733 70.9371L145.105 71.5596L144.278 72.015Z" fill="#263238"/>
<path d="M147.722 72.015L148.549 72.4628L148.177 73.0853L147.343 72.5919L147.358 73.5103H146.644L146.652 72.5843L145.817 73.0853L145.453 72.4628L146.281 72.015L145.453 71.5596L145.817 70.9371L146.652 71.438L146.644 70.5121H147.358L147.343 71.438L148.177 70.9371L148.549 71.5596L147.722 72.015Z" fill="#263238"/>
<path d="M151.166 72.015L151.993 72.4628L151.621 73.0853L150.787 72.5919L150.802 73.5103H150.088L150.096 72.5843L149.261 73.0853L148.897 72.4628L149.725 72.015L148.897 71.5596L149.261 70.9371L150.096 71.438L150.088 70.5121H150.802L150.787 71.438L151.621 70.9371L151.993 71.5596L151.166 72.015Z" fill="#263238"/>
<path d="M154.61 72.015L155.438 72.4628L155.066 73.0853L154.231 72.5919L154.246 73.5103H153.532L153.54 72.5843L152.705 73.0853L152.341 72.4628L153.169 72.015L152.341 71.5596L152.705 70.9371L153.54 71.438L153.532 70.5121H154.246L154.231 71.438L155.066 70.9371L155.438 71.5596L154.61 72.015Z" fill="#263238"/>
<path d="M158.054 72.015L158.881 72.4628L158.509 73.0853L157.675 72.5919L157.69 73.5103H156.976L156.984 72.5843L156.149 73.0853L155.785 72.4628L156.613 72.015L155.785 71.5596L156.149 70.9371L156.984 71.438L156.976 70.5121H157.69L157.675 71.438L158.509 70.9371L158.881 71.5596L158.054 72.015Z" fill="#263238"/>
<path d="M161.498 72.015L162.325 72.4628L161.953 73.0853L161.118 72.5919L161.134 73.5103H160.42L160.428 72.5843L159.593 73.0853L159.229 72.4628L160.057 72.015L159.229 71.5596L159.593 70.9371L160.428 71.438L160.42 70.5121H161.134L161.118 71.438L161.953 70.9371L162.325 71.5596L161.498 72.015Z" fill="#263238"/>
<path d="M199.16 136.827H132.562C130.988 136.827 129.711 135.551 129.711 133.977V99.5039C129.711 97.93 130.987 96.6537 132.562 96.6537H199.16C200.734 96.6537 202.01 97.93 202.01 99.5039V133.977C202.01 135.551 200.734 136.827 199.16 136.827Z" fill="white"/>
<path d="M199.16 136.827C199.159 136.815 199.354 136.831 199.722 136.759C200.081 136.68 200.636 136.493 201.157 135.978C201.413 135.72 201.649 135.378 201.803 134.957C201.886 134.749 201.93 134.517 201.962 134.275C201.981 134.032 201.977 133.774 201.976 133.506C201.972 132.434 201.969 131.198 201.965 129.807C201.956 124.235 201.943 116.18 201.928 106.227C201.926 104.983 201.925 103.709 201.924 102.406C201.923 101.755 201.922 101.097 201.922 100.431C201.906 99.7649 201.992 99.0834 201.72 98.4743C201.473 97.8643 200.998 97.3423 200.398 97.0416C200.099 96.8905 199.771 96.7944 199.434 96.76C199.102 96.735 198.739 96.7515 198.39 96.7471C196.978 96.748 195.54 96.7493 194.076 96.7502C188.223 96.7533 181.969 96.7573 175.388 96.7609C162.226 96.7636 147.756 96.7667 132.567 96.7699C132.111 96.7721 131.659 96.8874 131.258 97.1006C130.863 97.3231 130.515 97.6346 130.27 98.0158C130.029 98.397 129.868 98.834 129.839 99.2858C129.817 99.7372 129.833 100.221 129.828 100.685C129.828 102.561 129.828 104.424 129.828 106.274C129.827 109.973 129.826 113.618 129.826 117.2C129.825 120.781 129.824 124.3 129.823 127.745C129.822 129.468 129.821 131.172 129.821 132.857C129.824 133.276 129.814 133.704 129.827 134.112C129.846 134.515 129.955 134.911 130.142 135.265C130.518 135.975 131.215 136.495 131.99 136.659C132.373 136.749 132.782 136.711 133.194 136.72C133.603 136.72 134.011 136.72 134.417 136.72C135.229 136.721 136.036 136.721 136.838 136.722C138.441 136.723 140.023 136.724 141.582 136.724C144.7 136.727 147.727 136.728 150.654 136.73C156.507 136.736 161.959 136.74 166.937 136.745C176.89 136.76 184.944 136.773 190.515 136.782C193.296 136.791 195.456 136.799 196.925 136.804C197.655 136.808 198.212 136.812 198.592 136.815C198.968 136.82 199.16 136.827 199.16 136.827C199.16 136.827 198.968 136.835 198.592 136.839C198.212 136.842 197.654 136.846 196.925 136.851C195.455 136.856 193.295 136.863 190.515 136.873C184.943 136.882 176.889 136.894 166.937 136.91C161.959 136.914 156.507 136.919 150.654 136.924C147.727 136.926 144.7 136.928 141.582 136.93C140.023 136.931 138.441 136.932 136.838 136.933C136.036 136.933 135.229 136.934 134.416 136.934C134.01 136.934 133.602 136.934 133.194 136.934C132.791 136.926 132.37 136.967 131.945 136.87C131.109 136.693 130.357 136.133 129.951 135.368C129.748 134.986 129.631 134.557 129.61 134.124C129.595 133.695 129.606 133.282 129.602 132.858C129.602 131.173 129.601 129.468 129.601 127.746C129.6 124.3 129.599 120.782 129.598 117.2C129.597 113.619 129.597 109.974 129.596 106.274C129.596 104.425 129.596 102.562 129.596 100.686C129.601 100.213 129.584 99.7564 129.607 99.268C129.639 98.7786 129.813 98.3027 130.075 97.8893C130.341 97.4755 130.717 97.1372 131.146 96.8963C131.581 96.6648 132.074 96.5397 132.567 96.5375C147.755 96.5406 162.226 96.5437 175.388 96.5464C181.969 96.55 188.223 96.5536 194.076 96.5571C195.54 96.558 196.978 96.5594 198.39 96.5603C198.746 96.5656 199.087 96.5486 199.452 96.5759C199.812 96.613 200.162 96.7162 200.481 96.878C201.12 97.1998 201.625 97.7566 201.886 98.4068C202.019 98.7313 202.089 99.0789 202.095 99.4253C202.096 99.7622 202.097 100.097 202.098 100.431C202.098 101.096 202.097 101.754 202.096 102.406C202.095 103.709 202.094 104.983 202.092 106.227C202.077 116.179 202.064 124.234 202.055 129.806C202.051 131.197 202.048 132.434 202.044 133.506C202.044 133.774 202.046 134.031 202.025 134.281C201.99 134.528 201.943 134.765 201.857 134.977C201.696 135.405 201.453 135.752 201.19 136.01C200.655 136.529 200.09 136.71 199.726 136.782C199.54 136.811 199.398 136.828 199.303 136.825C199.208 136.829 199.16 136.827 199.16 136.827Z" fill="#263238"/>
<path d="M154.901 110.849V111.351H152.809V108.649H154.85V109.151H153.43V109.738H154.684V110.225H153.43V110.849H154.901Z" fill="#263238"/>
<path d="M157.877 108.649V111.351H157.364L156.017 109.711V111.351H155.399V108.649H155.916L157.26 110.29V108.649H157.877Z" fill="#263238"/>
<path d="M159.078 109.159H158.214V108.649H160.568V109.159H159.704V111.351H159.078V109.159Z" fill="#263238"/>
<path d="M162.996 110.849V111.351H160.904V108.649H162.946V109.151H161.525V109.738H162.78V110.224H161.525V110.849H162.996Z" fill="#263238"/>
<path d="M165.216 111.351L164.695 110.598H164.664H164.12V111.351H163.495V108.649H164.664C165.386 108.649 165.837 109.024 165.837 109.63C165.837 110.035 165.633 110.332 165.282 110.482L165.888 111.351H165.216V111.351ZM164.63 109.159H164.12V110.1H164.63C165.012 110.1 165.205 109.922 165.205 109.629C165.205 109.332 165.012 109.159 164.63 109.159Z" fill="#263238"/>
<path d="M167.255 110C167.255 109.186 167.88 108.603 168.722 108.603C169.189 108.603 169.578 108.772 169.833 109.081L169.432 109.452C169.25 109.243 169.022 109.135 168.752 109.135C168.247 109.135 167.887 109.49 167.887 110C167.887 110.51 168.247 110.865 168.752 110.865C169.022 110.865 169.25 110.757 169.432 110.544L169.833 110.915C169.578 111.227 169.189 111.397 168.718 111.397C167.88 111.397 167.255 110.814 167.255 110Z" fill="#263238"/>
<path d="M170.027 110C170.027 109.197 170.652 108.603 171.505 108.603C172.354 108.603 172.984 109.193 172.984 110C172.984 110.807 172.355 111.397 171.505 111.397C170.652 111.397 170.027 110.803 170.027 110ZM172.35 110C172.35 109.487 171.988 109.135 171.505 109.135C171.023 109.135 170.659 109.486 170.659 110C170.659 110.513 171.023 110.865 171.505 110.865C171.988 110.865 172.35 110.514 172.35 110Z" fill="#263238"/>
<path d="M173.455 108.649H174.682C175.566 108.649 176.172 109.182 176.172 110C176.172 110.818 175.567 111.351 174.682 111.351H173.455V108.649ZM174.652 110.838C175.188 110.838 175.539 110.517 175.539 110C175.539 109.483 175.188 109.163 174.652 109.163H174.081V110.838H174.652V110.838Z" fill="#263238"/>
<path d="M178.735 110.849V111.351H176.644V108.649H178.685V109.151H177.265V109.738H178.519V110.224H177.265V110.849H178.735Z" fill="#263238"/>
<path d="M144.65 129.417H138.087C137.112 129.417 136.321 128.626 136.321 127.65V117.431C136.321 116.455 137.112 115.664 138.087 115.664H144.65C145.625 115.664 146.416 116.455 146.416 117.431V127.65C146.416 128.626 145.625 129.417 144.65 129.417Z" fill="#EBEBEB"/>
<path d="M157.255 129.417H150.693C149.717 129.417 148.927 128.626 148.927 127.65V117.431C148.927 116.455 149.717 115.664 150.693 115.664H157.255C158.231 115.664 159.021 116.455 159.021 117.431V127.65C159.021 128.626 158.231 129.417 157.255 129.417Z" fill="#EBEBEB"/>
<path d="M169.86 129.417H163.299C162.323 129.417 161.533 128.626 161.533 127.65V117.431C161.533 116.455 162.324 115.664 163.299 115.664H169.86C170.836 115.664 171.627 116.455 171.627 117.431V127.65C171.627 128.626 170.836 129.417 169.86 129.417Z" fill="#EBEBEB"/>
<path d="M182.466 129.417H175.904C174.928 129.417 174.138 128.626 174.138 127.65V117.431C174.138 116.455 174.929 115.664 175.904 115.664H182.466C183.442 115.664 184.232 116.455 184.232 117.431V127.65C184.232 128.626 183.442 129.417 182.466 129.417Z" fill="#EBEBEB"/>
<path d="M195.072 129.417H188.51C187.534 129.417 186.743 128.626 186.743 127.65V117.431C186.743 116.455 187.534 115.664 188.51 115.664H195.072C196.047 115.664 196.838 116.455 196.838 117.431V127.65C196.838 128.626 196.047 129.417 195.072 129.417Z" fill="#EBEBEB"/>
<path d="M143.568 123.603C143.568 124.585 142.808 125.222 141.78 125.222C140.369 125.222 139.625 124.209 139.625 122.529C139.625 120.711 140.591 119.775 142.011 119.775C142.471 119.775 142.9 119.852 143.23 120.051L143.069 120.366C142.793 120.189 142.417 120.12 142.011 120.12C140.806 120.12 140.016 120.91 140.016 122.467C140.016 122.628 140.024 122.866 140.062 123.112C140.285 122.406 140.96 122.007 141.773 122.007C142.847 122.007 143.568 122.636 143.568 123.603ZM143.176 123.61C143.176 122.843 142.624 122.345 141.719 122.345C140.836 122.345 140.23 122.904 140.23 123.626C140.23 124.255 140.76 124.883 141.765 124.883C142.601 124.884 143.176 124.385 143.176 123.61Z" fill="#FF725E"/>
<path d="M156.038 123.695H154.91V125.183H154.527V123.695H151.466V123.411L154.381 119.813H154.818L151.957 123.35H154.534V122.037H154.91V123.35H156.038V123.695Z" fill="#FF725E"/>
<path d="M166.699 126.062C167.991 126.062 169.039 126.009 169.039 125.945C169.039 125.881 167.991 125.828 166.699 125.828C165.407 125.828 164.36 125.881 164.36 125.945C164.36 126.009 165.407 126.062 166.699 126.062Z" fill="#FF725E"/>
<path d="M134.301 101.758C134.906 101.758 135.396 101.268 135.396 100.663C135.396 100.059 134.906 99.5687 134.301 99.5687C133.697 99.5687 133.207 100.059 133.207 100.663C133.207 101.268 133.697 101.758 134.301 101.758Z" fill="#263238"/>
<path d="M137.456 101.758C138.061 101.758 138.551 101.268 138.551 100.663C138.551 100.059 138.061 99.5687 137.456 99.5687C136.852 99.5687 136.362 100.059 136.362 100.663C136.362 101.268 136.852 101.758 137.456 101.758Z" fill="#263238"/>
<path d="M140.554 101.758C141.158 101.758 141.648 101.268 141.648 100.663C141.648 100.059 141.158 99.5687 140.554 99.5687C139.949 99.5687 139.459 100.059 139.459 100.663C139.459 101.268 139.949 101.758 140.554 101.758Z" fill="#263238"/>
<path d="M202.119 103.748C202.119 103.812 185.931 103.864 165.968 103.864C145.998 103.864 129.814 103.812 129.814 103.748C129.814 103.683 145.997 103.631 165.968 103.631C185.931 103.631 202.119 103.683 202.119 103.748Z" fill="#263238"/>
<path d="M120.91 47.3304H86.0996C85.0995 47.3304 84.2888 48.1411 84.2888 49.1412V65C84.2888 66.0001 85.0995 66.8108 86.0996 66.8108H100.703L103.805 70.7885L106.391 66.8108H120.911C121.911 66.8108 122.722 66.0001 122.722 65V49.1412C122.721 48.1411 121.911 47.3304 120.91 47.3304Z" fill="white"/>
<path d="M120.91 47.3305C120.91 47.3305 120.968 47.3274 121.082 47.33C121.196 47.3417 121.368 47.3577 121.579 47.4404C121.788 47.52 122.042 47.6585 122.268 47.9061C122.496 48.1465 122.691 48.504 122.744 48.9406C122.778 50.6683 122.772 53.1789 122.786 56.3608C122.79 57.9513 122.795 59.7075 122.799 61.6126C122.801 62.5654 122.803 63.5557 122.805 64.5813C122.801 64.8342 122.824 65.0979 122.77 65.3718C122.718 65.6404 122.603 65.8983 122.439 66.1217C122.114 66.5735 121.571 66.8756 120.995 66.8962C116.616 66.9024 111.704 66.91 106.39 66.9176L106.48 66.8689C105.668 68.1198 104.792 69.4707 103.898 70.8485L103.813 70.979L103.717 70.8561C102.738 69.6012 101.685 68.252 100.614 66.8801L100.703 66.9239C96.6806 66.9248 92.4713 66.9257 88.1526 66.9266C87.6485 66.9266 87.1457 66.9266 86.6448 66.9266C86.39 66.9221 86.1541 66.9377 85.8819 66.9136C85.6178 66.8841 85.3604 66.7983 85.1321 66.6642C84.6731 66.3988 84.3348 65.9385 84.2208 65.4237C84.1583 65.1627 84.1753 64.9013 84.1726 64.6613V63.9235C84.173 61.9598 84.1739 60.0248 84.1744 58.1233C84.1753 56.2218 84.1762 54.3542 84.177 52.5251C84.1775 51.6108 84.1784 50.7058 84.1788 49.8112L84.1793 49.1422C84.1806 48.9067 84.224 48.6716 84.3089 48.4535C84.4769 48.0156 84.8094 47.6487 85.221 47.4373C85.4266 47.3314 85.6504 47.2612 85.8793 47.2375C86.1139 47.2161 86.3226 47.2273 86.5398 47.2246C86.971 47.225 87.3996 47.2255 87.825 47.2259C88.6763 47.2268 89.516 47.2277 90.3437 47.2286C91.999 47.2308 93.606 47.2326 95.1594 47.2344C98.2661 47.2398 101.161 47.2442 103.804 47.2487C109.083 47.2643 113.357 47.2769 116.32 47.2858C117.792 47.2952 118.937 47.3028 119.723 47.3077C120.106 47.3126 120.401 47.3166 120.608 47.3193C120.809 47.3224 120.91 47.3305 120.91 47.3305C120.91 47.3305 120.808 47.3385 120.609 47.3426C120.401 47.3452 120.107 47.3493 119.724 47.3542C118.938 47.3591 117.793 47.3667 116.321 47.3761C113.358 47.385 109.084 47.3975 103.804 47.4132C101.162 47.4176 98.267 47.4221 95.1602 47.4275C93.6064 47.4292 91.9994 47.431 90.3446 47.4333C89.5169 47.4342 88.6772 47.4351 87.8259 47.436C87.4005 47.4364 86.9719 47.4368 86.5406 47.4373C86.327 47.44 86.1022 47.4306 85.9043 47.4498C85.7009 47.4713 85.5025 47.5338 85.3202 47.6281C84.9551 47.8167 84.6601 48.1429 84.5122 48.5317C84.4376 48.7257 84.3992 48.9335 84.3983 49.1431L84.3987 49.8121C84.3992 50.7067 84.4 51.6117 84.4005 52.526C84.4014 54.3551 84.4023 56.2227 84.4032 58.1242C84.4036 60.0257 84.4045 61.9607 84.405 63.9244V64.6622C84.4072 64.9133 84.3929 65.1511 84.4479 65.3736C84.548 65.8259 84.846 66.2308 85.2496 66.464C85.4507 66.5816 85.6764 66.6571 85.9087 66.683C86.134 66.704 86.3994 66.6906 86.6457 66.6946C87.1466 66.6946 87.6494 66.6946 88.1535 66.6946C92.4722 66.6955 96.6815 66.6964 100.704 66.6973H100.759L100.793 66.7411C101.863 68.1144 102.915 69.4644 103.893 70.7202L103.712 70.7278C104.608 69.3514 105.487 68.0018 106.3 66.7523L106.332 66.7031H106.39C111.701 66.708 116.61 66.7125 120.987 66.7165C121.509 66.6995 122.002 66.4278 122.298 66.0185C122.448 65.8156 122.554 65.5823 122.601 65.3383C122.652 65.0983 122.631 64.8396 122.637 64.5813C122.639 63.5557 122.641 62.5654 122.643 61.6126C122.647 59.7075 122.652 57.9517 122.656 56.3608C122.664 53.1883 122.671 50.6759 122.675 48.9482C122.629 48.5277 122.447 48.1787 122.228 47.9414C122.013 47.6974 121.769 47.5566 121.566 47.473C121.151 47.3099 120.907 47.3488 120.91 47.3305Z" fill="#263238"/>
<path d="M96.9871 51.8057V52.3929H96.6037V51.8016L95.9624 50.7367H96.3695L96.8119 51.4723L97.2544 50.7367H97.6306L96.9871 51.8057Z" fill="#263238"/>
<path d="M97.6182 51.5641C97.6182 51.0725 98.0016 50.7079 98.5245 50.7079C99.0451 50.7079 99.4307 51.0699 99.4307 51.5641C99.4307 52.0588 99.0451 52.4208 98.5245 52.4208C98.0016 52.4208 97.6182 52.0566 97.6182 51.5641ZM99.0424 51.5641C99.0424 51.2495 98.8203 51.0341 98.524 51.0341C98.2282 51.0341 98.0056 51.2491 98.0056 51.5641C98.0056 51.8787 98.2282 52.0946 98.524 52.0946C98.8203 52.0941 99.0424 51.8787 99.0424 51.5641Z" fill="#263238"/>
<path d="M99.7068 51.6637V50.7365H100.09V51.6499C100.09 51.9645 100.227 52.0945 100.459 52.0945C100.694 52.0945 100.828 51.9645 100.828 51.6499V50.7365H101.207V51.6637C101.207 52.1513 100.928 52.4208 100.457 52.4208C99.9861 52.4208 99.7068 52.1509 99.7068 51.6637Z" fill="#263238"/>
<path d="M102.643 52.3926L102.323 51.9314H102.305H101.971V52.3926H101.587V50.7365H102.305C102.747 50.7365 103.024 50.9662 103.024 51.3375C103.024 51.586 102.898 51.7683 102.683 51.8604L103.055 52.3926H102.643ZM102.283 51.0484H101.971V51.6258H102.283C102.517 51.6258 102.636 51.5172 102.636 51.3371C102.636 51.1547 102.518 51.0484 102.283 51.0484Z" fill="#263238"/>
<path d="M103.895 51.5641C103.895 51.065 104.278 50.7079 104.794 50.7079C105.08 50.7079 105.319 50.8116 105.475 51.001L105.229 51.2281C105.118 51.1007 104.978 51.0341 104.813 51.0341C104.503 51.0341 104.283 51.2517 104.283 51.5641C104.283 51.8765 104.503 52.0946 104.813 52.0946C104.978 52.0946 105.118 52.0284 105.229 51.8984L105.475 52.1254C105.319 52.3176 105.08 52.4213 104.792 52.4213C104.278 52.4208 103.895 52.0633 103.895 51.5641Z" fill="#263238"/>
<path d="M105.595 51.5641C105.595 51.0725 105.979 50.7079 106.502 50.7079C107.022 50.7079 107.408 51.0699 107.408 51.5641C107.408 52.0588 107.022 52.4208 106.502 52.4208C105.979 52.4208 105.595 52.0566 105.595 51.5641ZM107.02 51.5641C107.02 51.2495 106.797 51.0341 106.502 51.0341C106.206 51.0341 105.983 51.2491 105.983 51.5641C105.983 51.8787 106.206 52.0946 106.502 52.0946C106.797 52.0941 107.02 51.8787 107.02 51.5641Z" fill="#263238"/>
<path d="M107.698 50.7361H108.451C108.993 50.7361 109.364 51.0623 109.364 51.5637C109.364 52.0656 108.993 52.3923 108.451 52.3923H107.698V50.7361ZM108.432 52.0776C108.761 52.0776 108.976 51.8815 108.976 51.5637C108.976 51.2469 108.761 51.0507 108.432 51.0507H108.082V52.0776H108.432Z" fill="#263238"/>
<path d="M110.937 52.0847V52.3926H109.655V50.7365H110.906V51.0439H110.036V51.4037H110.805V51.7017H110.036V52.0847H110.937Z" fill="#263238"/>
<path d="M117.514 63.2199H89.4956C88.6206 63.2199 87.9114 62.5107 87.9114 61.6357V55.7167C87.9114 54.8417 88.6206 54.1324 89.4956 54.1324H117.514C118.389 54.1324 119.098 54.8417 119.098 55.7167V61.6357C119.098 62.5103 118.389 63.2199 117.514 63.2199Z" fill="#F5F5F5"/>
<path d="M94.2512 59.2324C94.2512 60.0372 93.6287 60.5592 92.7863 60.5592C91.6293 60.5592 91.0198 59.7293 91.0198 58.352C91.0198 56.8621 91.8117 56.0952 92.9749 56.0952C93.3521 56.0952 93.7042 56.1582 93.9746 56.3213L93.8423 56.5792C93.6162 56.4349 93.3078 56.3781 92.9749 56.3781C91.9882 56.3781 91.3402 57.0256 91.3402 58.302C91.3402 58.4342 91.3464 58.6286 91.3777 58.8302C91.5601 58.2519 92.1133 57.9252 92.7796 57.9252C93.6604 57.9248 94.2512 58.4405 94.2512 59.2324ZM93.9308 59.2391C93.9308 58.6103 93.4781 58.2019 92.7363 58.2019C92.0132 58.2019 91.5167 58.6604 91.5167 59.252C91.5167 59.7673 91.9506 60.283 92.7738 60.283C93.4593 60.2826 93.9308 59.8741 93.9308 59.2391Z" fill="#FF725E"/>
<path d="M100.093 59.3078H99.1687V60.5278H98.8541V59.3078H96.3457V59.0754L98.7348 56.1268H99.0932L96.7479 59.0249H98.8603V57.9497H99.1683V59.0249H100.092V59.3078H100.093Z" fill="#FF725E"/>
<path d="M104.979 59.289C104.979 60.0183 104.451 60.5591 103.439 60.5591C102.791 60.5591 102.194 60.3204 101.886 59.9683L102.05 59.723C102.32 60.0309 102.835 60.2637 103.439 60.2637C104.231 60.2637 104.652 59.8865 104.652 59.289C104.652 58.6982 104.25 58.3144 103.37 58.3144H103.093V58.082L104.394 56.4155H102.049V56.1268H104.809V56.353L103.489 58.0444C104.489 58.0695 104.979 58.5727 104.979 59.289Z" fill="#FF725E"/>
<path d="M110.299 56.1268V56.353L108.406 60.5278H108.054L109.928 56.416H107.457V57.2588H107.143V56.1273H110.299V56.1268Z" fill="#FF725E"/>
<path d="M112.544 58.3273C112.544 56.9505 113.255 56.0956 114.267 56.0956C115.279 56.0956 115.989 56.9505 115.989 58.3273C115.989 59.7042 115.279 60.5591 114.267 60.5591C113.255 60.5591 112.544 59.7042 112.544 58.3273ZM115.669 58.3273C115.669 57.1015 115.097 56.391 114.267 56.391C113.437 56.391 112.865 57.1015 112.865 58.3273C112.865 59.5532 113.437 60.2637 114.267 60.2637C115.097 60.2637 115.669 59.5532 115.669 58.3273Z" fill="#FF725E"/>
<path d="M208.369 173.426C214.22 170.942 220.993 166.057 224.014 160.067C217.704 162.602 212.139 167.354 208.369 173.426Z" fill="#263238"/>
<path d="M209.613 164.129C215.464 161.646 222.237 156.761 225.259 150.771C218.948 153.306 213.383 158.058 209.613 164.129Z" fill="#263238"/>
<path d="M211.306 155.088C217.157 152.604 223.93 147.719 226.951 141.729C220.641 144.264 215.076 149.016 211.306 155.088Z" fill="#263238"/>
<path d="M213.428 145.622C218.948 142.347 225.1 136.566 227.393 130.215C221.422 133.606 216.455 139.086 213.428 145.622Z" fill="#263238"/>
<path d="M215.696 138.379C219.718 133.118 223.467 125.29 223.418 118.507C219.014 124.058 216.268 131.126 215.696 138.379Z" fill="#263238"/>
<path d="M214.571 141.822C213.759 134.709 210.992 125.765 206.294 120.431C207.041 128.054 209.984 135.662 214.571 141.822Z" fill="#263238"/>
<path d="M212.68 149.603C211.248 142.269 207.629 133.198 202.295 128.054C203.7 135.924 207.394 143.589 212.68 149.603Z" fill="#263238"/>
<path d="M210.508 159.091C209.076 151.757 205.457 142.687 200.123 137.543C201.528 145.412 205.221 153.077 210.508 159.091Z" fill="#263238"/>
<path d="M208.764 170.74C207.333 163.406 203.713 154.336 198.38 149.192C199.784 157.061 203.478 164.726 208.764 170.74Z" fill="#263238"/>
<path d="M215.968 136.985C215.964 136.984 215.949 137.021 215.923 137.094C215.894 137.181 215.858 137.289 215.812 137.422C215.714 137.729 215.579 138.153 215.407 138.691C215.055 139.793 214.579 141.398 214.023 143.391C213.462 145.382 212.846 147.767 212.21 150.428C211.586 153.091 210.949 156.031 210.363 159.133C209.783 162.237 209.309 165.208 208.924 167.916C208.55 170.626 208.259 173.073 208.057 175.132C207.852 177.19 207.712 178.858 207.639 180.013C207.604 180.576 207.576 181.02 207.556 181.342C207.549 181.483 207.544 181.597 207.54 181.688C207.537 181.766 207.538 181.807 207.542 181.807C207.546 181.807 207.553 181.767 207.563 181.69C207.573 181.599 207.586 181.486 207.601 181.345C207.632 181.025 207.674 180.582 207.727 180.02C207.827 178.868 207.992 177.203 208.217 175.149C208.44 173.094 208.747 170.652 209.132 167.946C209.529 165.242 210.008 162.275 210.587 159.175C211.173 156.076 211.802 153.139 212.415 150.476C213.039 147.815 213.638 145.428 214.179 143.433C214.715 141.437 215.167 139.826 215.492 138.717C215.647 138.174 215.768 137.745 215.856 137.436C215.892 137.299 215.922 137.189 215.946 137.101C215.964 137.026 215.972 136.986 215.968 136.985Z" fill="#263238"/>
<path d="M205.519 177.299C207.999 172.103 209.804 164.798 208.586 159.096C205.834 164.609 204.743 171.084 205.519 177.299Z" fill="#455A64"/>
<path d="M201.392 170.571C203.872 165.375 205.677 158.071 204.459 152.368C201.707 157.881 200.616 164.356 201.392 170.571Z" fill="#455A64"/>
<path d="M197.69 163.73C200.171 158.534 201.976 151.229 200.758 145.527C198.006 151.04 196.915 157.514 197.69 163.73Z" fill="#455A64"/>
<path d="M194.043 156.353C195.889 150.853 196.815 143.356 194.931 137.872C192.855 143.724 192.539 150.297 194.043 156.353Z" fill="#455A64"/>
<path d="M191.671 150.311C191.489 144.46 189.768 137.132 186.135 132.811C186.223 139.083 188.192 145.308 191.671 150.311Z" fill="#455A64"/>
<path d="M192.769 153.212C188.465 149.151 181.92 145.119 176.038 144.592C180.569 149.02 186.52 152.086 192.769 153.212Z" fill="#455A64"/>
<path d="M195.671 159.367C190.848 155.545 183.682 151.958 177.488 151.944C182.578 156.125 189.045 158.765 195.671 159.367Z" fill="#455A64"/>
<path d="M199.298 166.789C194.474 162.968 187.309 159.38 181.115 159.366C186.205 163.548 192.672 166.188 199.298 166.789Z" fill="#455A64"/>
<path d="M204.35 175.333C199.527 171.512 192.361 167.924 186.167 167.911C191.257 172.092 197.724 174.732 204.35 175.333Z" fill="#455A64"/>
<path d="M191.108 149.249C191.104 149.251 191.114 149.283 191.135 149.346C191.162 149.42 191.195 149.511 191.235 149.621C191.334 149.879 191.469 150.23 191.638 150.673C191.99 151.586 192.527 152.896 193.215 154.505C194.592 157.721 196.631 162.11 199.165 166.812C200.436 169.161 201.707 171.366 202.899 173.349C204.102 175.326 205.215 177.087 206.187 178.543C207.154 180.001 207.957 181.167 208.529 181.961C208.807 182.346 209.027 182.65 209.188 182.874C209.259 182.968 209.317 183.045 209.364 183.108C209.405 183.161 209.427 183.186 209.43 183.184C209.433 183.182 209.417 183.152 209.383 183.095C209.34 183.029 209.288 182.948 209.224 182.849C209.071 182.62 208.862 182.307 208.599 181.913C208.048 181.105 207.266 179.926 206.316 178.459C205.362 176.994 204.263 175.226 203.072 173.246C201.89 171.259 200.626 169.055 199.357 166.708C196.827 162.013 194.769 157.642 193.357 154.444C192.651 152.845 192.092 151.545 191.717 150.642C191.531 150.205 191.384 149.859 191.276 149.606C191.227 149.498 191.188 149.41 191.156 149.338C191.128 149.278 191.111 149.248 191.108 149.249Z" fill="#263238"/>
<path d="M193.702 177.926H218.353V182.677H215.82L213.686 196.227H198.449L196.255 182.677H193.702V177.926Z" fill="#FF725E"/>
<path d="M193.702 182.578C193.702 182.515 199.181 182.464 205.937 182.464C212.697 182.464 218.174 182.515 218.174 182.578C218.174 182.641 212.697 182.693 205.937 182.693C199.181 182.693 193.702 182.641 193.702 182.578Z" fill="#263238"/>
<path d="M52.4996 196.235H48.4986L47.0149 178.225H51.7264L52.4996 196.235Z" fill="#263238"/>
<path d="M87.1741 196.235H91.1755L92.6587 178.225H87.9472L87.1741 196.235Z" fill="#263238"/>
<path d="M95.4081 180.505L43.9104 181.713L42.3431 148.451C42.1898 145.194 44.7889 142.469 48.0494 142.469H91.9259C95.2365 142.469 97.8539 145.275 97.6246 148.578L95.4081 180.505Z" fill="#FF725E"/>
<path d="M98.0483 148.337C98.0483 148.341 97.9996 148.345 97.9044 148.35C97.7967 148.353 97.6578 148.357 97.4821 148.362C97.0956 148.368 96.5517 148.376 95.859 148.387C94.4339 148.392 92.3979 148.399 89.889 148.408C84.8486 148.417 77.8843 148.36 70.1982 148.538C62.5077 148.794 55.538 148.75 50.4985 148.674C47.978 148.634 45.9388 148.585 44.5298 148.542C43.8376 148.519 43.2942 148.5 42.9076 148.487C42.7324 148.478 42.5934 148.472 42.4857 148.466C42.3906 148.46 42.3423 148.455 42.3423 148.451C42.3423 148.447 42.391 148.444 42.4862 148.442C42.5939 148.442 42.7333 148.441 42.9085 148.439C43.2951 148.442 43.8389 148.446 44.5316 148.451C45.9567 148.465 47.9919 148.484 50.5002 148.508C55.5407 148.543 62.5032 148.56 70.1924 148.305C77.8847 148.127 84.8495 148.209 89.8895 148.243C92.3983 148.265 94.4335 148.283 95.859 148.295C96.5517 148.303 97.0956 148.31 97.4821 148.314C97.6573 148.319 97.7967 148.322 97.9044 148.325C97.9996 148.329 98.0483 148.333 98.0483 148.337Z" fill="#263238"/>
<path d="M61.1275 142.99C61.1418 143.067 59.5138 143.095 57.7839 143.993C56.041 144.867 55.0637 146.169 55.0092 146.112C54.9886 146.096 55.1996 145.754 55.6469 145.284C56.0915 144.815 56.7941 144.239 57.6784 143.786C58.5642 143.336 59.4428 143.105 60.0836 143.02C60.7258 142.934 61.1275 142.964 61.1275 142.99Z" fill="#263238"/>
<path d="M82.308 82.5126L88.6037 94.0124L97.8257 88.8544L102.31 90.3345C102.31 90.3345 90.9959 102.602 89.1601 103.227C87.3247 103.852 83.8484 103.965 81.8606 101.479C80.0507 99.2142 74.7837 87.3233 74.7837 87.3233L82.308 82.5126Z" fill="#FFBE9D"/>
<path d="M108.225 75.0056C108.061 74.8027 107.804 74.7004 107.545 74.7362L103.159 75.3395C102.775 75.3989 102.434 75.6192 102.221 75.9454L93.1143 89.9429L93.8145 90.3344L98.6637 90.182L108.363 75.1772L108.225 75.0056Z" fill="#263238"/>
<path d="M105.147 76.4474C105.037 76.5722 105.025 76.7397 105.118 76.8217C105.212 76.9037 105.376 76.8691 105.485 76.7444C105.595 76.6197 105.608 76.4521 105.514 76.3701C105.42 76.2881 105.256 76.3227 105.147 76.4474Z" fill="white"/>
<path d="M108.363 75.1763C108.366 75.1946 108.063 75.2531 107.516 75.3438C106.923 75.4355 106.139 75.557 105.191 75.7036C104.696 75.7764 104.159 75.8551 103.585 75.9395C103.309 75.9646 103.064 76.1071 102.907 76.3386C102.738 76.6001 102.565 76.8682 102.388 77.143C101.671 78.2491 100.886 79.4584 100.062 80.728C98.4058 83.2681 96.894 85.5593 95.7884 87.2101C95.2498 88.0047 94.8047 88.6611 94.4678 89.1581C94.1509 89.6148 93.9686 89.8628 93.9534 89.8525C93.9382 89.8427 94.0915 89.5759 94.3815 89.1018C94.7006 88.5932 95.122 87.9211 95.6319 87.1082C96.6973 85.431 98.1846 83.1237 99.8412 80.5836C100.671 79.318 101.462 78.1123 102.184 77.0098C102.366 76.7359 102.543 76.4682 102.715 76.2072C102.907 75.9199 103.244 75.7438 103.549 75.7228C104.126 75.65 104.665 75.5816 105.163 75.5186C106.116 75.4055 106.905 75.3121 107.501 75.2415C108.054 75.183 108.361 75.1584 108.363 75.1763Z" fill="#455A64"/>
<path d="M103.498 80.1806C103.498 80.1806 103.107 80.1105 102.893 81.1799C102.679 82.2493 101.99 85.3163 101.99 85.3163L99.9421 84.2281L97.3801 84.5619C97.3801 84.5619 96.821 85.0785 97.2308 85.3592C97.641 85.6394 99.2606 85.929 99.2606 85.929L100.455 87.6464L97.027 85.9938C97.027 85.9938 95.8834 86.2918 96.2181 86.9899C96.5533 87.6879 98.8646 89.8719 98.8646 89.8719L97.1472 89.7418L95.105 88.5017C95.105 88.5017 94.4784 88.5303 94.7121 89.0639C94.9459 89.5975 97.0695 91.5258 97.0695 91.5258L99.6449 92.7753C99.6449 92.7753 101.051 92.6649 101.186 92.252C101.321 91.8391 101.355 91.2501 101.355 91.2501C101.355 91.2501 102.101 91.049 102.241 90.687C102.38 90.325 102.29 89.7526 102.29 89.7526C102.29 89.7526 103.462 89.9581 103.607 89.3052C103.753 88.6523 103.631 87.3657 103.513 86.8634C103.395 86.3611 104.012 81.692 103.964 81.5512C103.916 81.4096 104.233 79.8718 103.498 80.1806Z" fill="#FFBE9D"/>
<path d="M101.276 92.2575C101.284 92.2879 101.035 92.3974 100.604 92.4662C100.174 92.5364 99.559 92.5431 98.9065 92.3889C98.2541 92.2325 97.708 91.9491 97.3563 91.6931C97.0019 91.4374 96.829 91.2274 96.8504 91.2042C96.8991 91.138 97.7147 91.8446 98.9678 92.1319C100.215 92.4398 101.262 92.1762 101.276 92.2575Z" fill="#EB996E"/>
<path d="M100.666 91.3337C100.625 91.3932 100.169 91.1541 99.682 90.7541C99.194 90.3546 98.87 89.9542 98.9205 89.9032C98.9723 89.8505 99.3714 90.1593 99.8491 90.5503C100.326 90.9418 100.707 91.2725 100.666 91.3337Z" fill="#EB996E"/>
<path d="M102.02 89.1118C101.981 89.1712 101.528 88.938 101.071 88.5148C100.613 88.0929 100.345 87.6599 100.401 87.6165C100.459 87.57 100.809 87.915 101.251 88.3213C101.69 88.7288 102.062 89.0501 102.02 89.1118Z" fill="#EB996E"/>
<path d="M103.445 87.3216C103.375 87.3515 103.116 86.868 102.708 86.3416C102.304 85.8115 101.904 85.4375 101.95 85.3772C101.99 85.32 102.488 85.6194 102.917 86.1807C103.35 86.7397 103.511 87.2979 103.445 87.3216Z" fill="#EB996E"/>
<path d="M105.188 170.202C105.203 170.201 105.218 170.049 105.175 169.778C105.131 169.509 105.021 169.116 104.747 168.7C104.677 168.599 104.607 168.489 104.492 168.389C104.383 168.29 104.194 168.214 104.012 168.281C103.922 168.31 103.832 168.393 103.801 168.494C103.767 168.597 103.784 168.699 103.811 168.781C103.87 168.952 103.959 169.074 104.033 169.214C104.2 169.494 104.337 169.772 104.549 170.087C104.656 170.248 104.898 170.381 105.118 170.343C105.335 170.315 105.51 170.211 105.668 170.1C105.974 169.878 106.243 169.625 106.475 169.356C106.591 169.221 106.697 169.082 106.793 168.941C106.885 168.802 106.992 168.66 107.033 168.465C107.074 168.278 107.003 168.032 106.79 167.947C106.574 167.869 106.398 167.977 106.278 168.062C106.034 168.265 105.888 168.473 105.739 168.673C105.455 169.074 105.299 169.442 105.21 169.699C105.123 169.958 105.103 170.108 105.118 170.112C105.162 170.13 105.307 169.533 105.883 168.78C106.026 168.601 106.203 168.384 106.401 168.233C106.502 168.16 106.629 168.114 106.705 168.153C106.786 168.182 106.831 168.303 106.804 168.419C106.779 168.54 106.688 168.669 106.595 168.804C106.501 168.936 106.399 169.066 106.288 169.193C106.066 169.446 105.808 169.685 105.52 169.895C105.381 169.994 105.23 170.076 105.09 170.093C104.948 170.111 104.837 170.055 104.745 169.934C104.568 169.678 104.399 169.36 104.235 169.097C104.157 168.959 104.063 168.826 104.022 168.711C103.979 168.59 104.003 168.511 104.087 168.478C104.281 168.398 104.47 168.617 104.601 168.803C105.145 169.575 105.138 170.217 105.188 170.202Z" fill="#263238"/>
<path d="M94.2055 170.577L88.7526 182.395L79.9529 178.331L85.5931 163.704L94.2055 170.577Z" fill="#FFBE9D"/>
<path d="M89.783 181.607L86.5972 187.682C86.5972 187.682 94.7524 196.115 93.9865 198L74.8149 188.808L80.082 176.621L89.783 181.607Z" fill="#455A64"/>
<path d="M81.0669 184.009C80.6473 183.933 80.191 184.227 80.0972 184.643C80.0038 185.059 80.2987 185.526 80.717 185.609C81.1353 185.693 81.6939 185.357 81.7404 184.933C81.7869 184.509 81.4101 183.979 80.9842 183.999" fill="#E0E0E0"/>
<g opacity="0.6">
<path d="M74.8149 188.808L75.6126 187.28L93.696 196.664C93.696 196.664 94.3717 197.445 93.9869 198L74.8149 188.808Z" fill="white"/>
</g>
<path d="M86.9544 187.734C86.9065 187.826 86.4181 187.644 85.813 187.724C85.2061 187.789 84.774 188.081 84.7056 188.002C84.6283 187.942 85.0359 187.45 85.7701 187.366C86.5035 187.274 87.016 187.657 86.9544 187.734Z" fill="#263238"/>
<path d="M88.5667 189.529C88.5448 189.63 88.0631 189.595 87.555 189.839C87.0402 190.067 86.7546 190.457 86.6634 190.408C86.5682 190.381 86.7667 189.801 87.4035 189.511C88.0381 189.214 88.6074 189.439 88.5667 189.529Z" fill="#263238"/>
<path d="M88.5547 192.484C88.4599 192.463 88.5542 191.933 89.0404 191.535C89.524 191.134 90.0625 191.144 90.0647 191.241C90.0808 191.343 89.6647 191.482 89.2706 191.815C88.8684 192.137 88.6521 192.519 88.5547 192.484Z" fill="#263238"/>
<path d="M87.8689 185.393C87.7889 185.46 87.4212 185.125 86.8746 184.907C86.3325 184.678 85.8356 184.658 85.8253 184.555C85.8034 184.461 86.3719 184.307 87.0118 184.573C87.6535 184.833 87.9503 185.341 87.8689 185.393Z" fill="#263238"/>
<path d="M91.5792 180.03L105.953 144.057C105.953 144.057 105.63 137.92 104.499 135.981C103.369 134.043 69.1275 122.737 69.1275 122.737C69.1275 122.737 60.4055 120.637 54.5911 122.737C48.7766 124.836 44.4154 132.105 45.2229 136.143C46.0305 140.181 49.4384 143.147 49.4384 143.147L74.6188 143.895L88.3433 148.902L79.1007 175.391L91.5792 180.03Z" fill="#263238"/>
<path d="M104.364 155.448L104.688 168.46L94.9979 168.697L93.6018 153.083L104.364 155.448Z" fill="#FFBE9D"/>
<path d="M105.265 167.297L105.088 174.155C105.088 174.155 116.127 178.121 116.273 180.151L95.0124 180.366L94.3586 167.106L105.265 167.297Z" fill="#455A64"/>
<path d="M98.5044 173.301C98.0941 173.417 97.8144 173.883 97.914 174.298C98.0137 174.712 98.4847 175.001 98.8972 174.891C99.3092 174.782 99.6623 174.234 99.517 173.832C99.3713 173.431 98.7998 173.123 98.4262 173.328" fill="#E0E0E0"/>
<g opacity="0.6">
<path d="M95.0125 180.366L95.0536 178.643L115.422 179.081C115.422 179.081 116.373 179.483 116.273 180.15L95.0125 180.366Z" fill="white"/>
</g>
<path d="M105.431 174.043C105.429 174.147 104.91 174.199 104.403 174.538C103.887 174.864 103.628 175.316 103.532 175.276C103.436 175.257 103.585 174.635 104.206 174.235C104.824 173.83 105.453 173.948 105.431 174.043Z" fill="#263238"/>
<path d="M107.671 174.943C107.695 175.043 107.247 175.224 106.899 175.667C106.538 176.099 106.454 176.575 106.351 176.571C106.253 176.589 106.175 175.981 106.619 175.439C107.057 174.894 107.668 174.844 107.671 174.943Z" fill="#263238"/>
<path d="M108.964 177.599C108.869 177.622 108.72 177.105 108.981 176.533C109.238 175.96 109.725 175.731 109.77 175.817C109.829 175.902 109.517 176.21 109.31 176.682C109.092 177.15 109.067 177.588 108.964 177.599Z" fill="#263238"/>
<path d="M105.218 171.539C105.176 171.635 104.698 171.496 104.112 171.542C103.525 171.576 103.07 171.778 103.015 171.689C102.954 171.614 103.396 171.226 104.087 171.182C104.778 171.132 105.269 171.458 105.218 171.539Z" fill="#263238"/>
<path d="M98.7052 119.324C98.7052 119.324 104.511 118.86 105.157 125.159C105.803 131.458 106.437 160.855 106.437 160.855L92.8697 161.985L90.7702 131.943L69.127 122.737C69.1274 122.737 94.8289 118.517 98.7052 119.324Z" fill="#263238"/>
<path d="M74.7751 110.824C74.7751 110.824 78.2989 120.703 77.6276 121.804C76.9564 122.905 67.8957 127.435 67.8957 127.435L45.2233 136.143C45.2233 136.143 42.8945 132.439 42.8945 126.749C42.8945 121.059 50.7808 110.824 50.7808 110.824H74.7751Z" fill="#263238"/>
<path d="M68.0547 122.233C68.0534 122.237 68.0891 122.256 68.1611 122.29C68.2442 122.329 68.3501 122.378 68.4828 122.439C68.7818 122.572 69.2014 122.759 69.7386 122.998C70.8518 123.483 72.4503 124.179 74.4515 125.051C78.4954 126.791 84.1633 129.231 90.7223 132.055L90.649 131.951C90.8546 134.919 91.0771 138.124 91.3072 141.44C91.8587 149.191 92.3673 156.338 92.7695 161.992L92.7766 162.094L92.8785 162.085C97.0051 161.723 100.391 161.426 102.762 161.218C103.928 161.109 104.844 161.023 105.484 160.964C105.785 160.932 106.021 160.908 106.195 160.89C106.355 160.871 106.438 160.859 106.437 160.854C106.437 160.849 106.354 160.851 106.192 160.859C106.017 160.871 105.781 160.885 105.479 160.904C104.838 160.951 103.92 161.019 102.753 161.104C100.38 161.291 96.9908 161.558 92.8611 161.885L92.9701 161.978C92.5818 156.323 92.0915 149.175 91.5593 141.422C91.326 138.107 91.1003 134.902 90.8912 131.935L90.8858 131.861L90.8175 131.832C84.2442 129.042 78.5638 126.63 74.5114 124.91C72.4981 124.066 70.8902 123.392 69.7708 122.923C69.2269 122.7 68.8024 122.525 68.4994 122.401C68.3631 122.347 68.254 122.304 68.1691 122.271C68.0949 122.242 68.0561 122.23 68.0547 122.233Z" fill="#455A64"/>
<path d="M50.0233 123.221C50.0291 123.238 50.2557 123.175 50.6597 123.048C51.1101 122.902 51.6826 122.718 52.3668 122.497C53.8071 122.04 55.8056 121.403 58.0798 121.054C60.354 120.703 62.4584 120.811 63.9283 121.129C65.4048 121.434 66.2534 121.855 66.2722 121.808C66.2784 121.794 66.0733 121.678 65.6823 121.509C65.2922 121.338 64.709 121.131 63.9667 120.954C62.4862 120.586 60.3442 120.447 58.0418 120.803C55.7404 121.157 53.7379 121.826 52.3091 122.327C51.5941 122.581 51.0208 122.799 50.6262 122.954C50.2325 123.111 50.0175 123.205 50.0233 123.221Z" fill="#455A64"/>
<path d="M53.2283 118.014C53.2346 118.054 53.9876 117.907 55.2107 118.003C55.8212 118.045 56.5478 118.139 57.3567 118.232C58.1642 118.329 59.0508 118.437 59.9687 118.611C61.8108 118.939 63.3959 119.581 64.4113 120.259C65.4364 120.926 65.9168 121.535 65.9517 121.5C65.9615 121.492 65.8578 121.329 65.6223 121.074C65.3873 120.819 65.023 120.466 64.5114 120.111C63.5014 119.38 61.881 118.694 60.0161 118.362C59.0866 118.186 58.1928 118.084 57.3821 118.001C56.5719 117.92 55.8404 117.844 55.2196 117.824C54.5998 117.801 54.0957 117.837 53.7525 117.889C53.4089 117.941 53.2252 117.999 53.2283 118.014Z" fill="#455A64"/>
<path d="M63.2427 38.6253C60.6337 38.182 58.3408 39.1866 56.1403 40.6568C53.9402 42.1276 52.2832 44.3468 51.3268 46.8141C50.3191 49.4127 50.0742 52.3367 50.8482 55.0145C51.6227 57.6918 53.4563 60.0885 55.9414 61.3509C59.3351 63.0746 63.6748 62.4735 66.711 60.1778C69.7472 57.8822 71.4829 54.0868 71.6286 50.2833C71.7287 47.6632 71.1026 44.9823 69.6386 42.8068C68.1741 40.6318 65.8373 39.0065 63.2427 38.6253Z" fill="#263238"/>
<path d="M55.8235 47.4964C56.2052 46.4985 56.0573 45.3839 56.2083 44.3262C56.5408 41.997 58.4177 40.129 60.5883 39.2209C62.6073 38.3763 65.0737 38.5604 67.5061 39.3469C69.1735 39.8859 70.7429 40.8257 71.8543 42.1802C73.3295 43.978 73.8497 46.5177 73.199 48.7504L61.2814 47.0146C60.1655 47.9379 59.0233 48.8764 57.6701 49.3912C57.2728 49.5422 56.8456 49.6558 56.4259 49.5896C56.0063 49.523 55.5983 49.2379 55.4991 48.8245C55.3905 48.3736 55.6577 47.9303 55.8235 47.4964Z" fill="#263238"/>
<path d="M67.7609 42.6374L57.356 44.8419C56.3496 44.9089 55.5617 45.7352 55.5425 46.7439L55.6676 69.2608C55.6761 70.799 56.1918 72.2916 57.1343 73.5067L58.1264 74.7866C60.389 77.7043 64.9718 77.4103 66.7 74.148C66.8206 73.9201 66.9042 73.7203 66.9395 73.5585C66.9744 73.3561 67.028 73.2225 67.0374 73.0504L67.2358 70.8553C67.3372 68.8506 67.3511 66.8132 67.3515 66.832C67.3515 66.832 71.6095 66.2939 72.7003 60.8079C73.2429 58.0796 73.28 53.5732 73.1906 49.885C73.1106 46.5647 71.0741 42.4162 67.7609 42.6374Z" fill="#FFBE9D"/>
<path d="M71.6077 54.1099C71.6063 54.4844 71.2882 54.7919 70.8976 54.7977C70.5074 54.8035 70.191 54.5054 70.1924 54.1309C70.1937 53.7564 70.5119 53.4485 70.902 53.4427C71.2931 53.4373 71.609 53.7359 71.6077 54.1099Z" fill="#263238"/>
<path d="M72.1233 52.1878C72.0321 52.2767 71.511 51.8589 70.7491 51.8311C69.9885 51.7927 69.4142 52.1632 69.3351 52.0667C69.2958 52.0238 69.3923 51.8606 69.6422 51.6926C69.8888 51.5255 70.304 51.37 70.7786 51.3901C71.2532 51.4111 71.6456 51.6014 71.8681 51.7891C72.0951 51.9782 72.168 52.148 72.1233 52.1878Z" fill="#263238"/>
<path d="M64.7796 53.9388C64.7783 54.3133 64.4601 54.6208 64.0695 54.6266C63.6794 54.6324 63.3634 54.3343 63.3648 53.9603C63.3661 53.5858 63.6843 53.2779 64.0744 53.2721C64.465 53.2658 64.7809 53.5643 64.7796 53.9388Z" fill="#263238"/>
<path d="M64.889 52.0022C64.7974 52.0911 64.2759 51.6733 63.5144 51.646C62.7538 51.6076 62.1795 51.9776 62.1004 51.8811C62.0616 51.8382 62.1567 51.6751 62.4079 51.5075C62.6546 51.3404 63.0697 51.1844 63.5443 51.2045C64.0185 51.2255 64.4108 51.4159 64.6338 51.6036C64.8604 51.7926 64.9337 51.9624 64.889 52.0022Z" fill="#263238"/>
<path d="M67.175 57.7962C67.1732 57.7529 67.6495 57.6894 68.4209 57.621C68.6162 57.6085 68.8021 57.5772 68.8396 57.4454C68.891 57.3064 68.8177 57.0937 68.7324 56.864C68.5679 56.3863 68.3954 55.8853 68.2144 55.3602C67.4976 53.2205 66.9864 51.4638 67.0731 51.4356C67.1593 51.4075 67.8109 53.1191 68.5277 55.2592C68.6997 55.7866 68.8642 56.2898 69.021 56.7706C69.0863 56.9945 69.2029 57.2501 69.0926 57.5379C69.0345 57.6814 68.8874 57.781 68.7614 57.8101C68.6354 57.8431 68.5259 57.8409 68.4294 57.8431C67.6554 57.8548 67.1763 57.8396 67.175 57.7962Z" fill="#263238"/>
<path d="M67.3509 66.8314C67.3509 66.8314 63.6279 66.9266 60.0349 64.5724C60.0349 64.5724 61.7452 68.4657 67.2902 68.1636L67.3509 66.8314Z" fill="#EB996E"/>
<path d="M66.7812 59.6199C66.5212 59.2472 66.0492 59.0296 65.5706 59.0622C65.2386 59.085 64.8985 59.2311 64.6871 59.493C64.4757 59.7544 64.419 60.1352 64.5915 60.3988C64.7859 60.696 65.2127 60.7791 65.5805 60.6902C65.9482 60.6008 66.27 60.3738 66.5766 60.1468C66.6615 60.0838 66.7482 60.0185 66.8027 59.93C66.8577 59.8416 66.8733 59.724 66.8125 59.6467" fill="#EB996E"/>
<path d="M64.9123 58.2364C65.0365 58.2337 65.0057 59.0609 65.6912 59.6754C66.3745 60.2916 67.2598 60.2331 67.2616 60.3488C67.271 60.4011 67.0591 60.5021 66.6869 60.4976C66.3213 60.4959 65.7931 60.3582 65.3739 59.9824C64.9561 59.6057 64.7889 59.1181 64.7742 58.778C64.7559 58.4303 64.856 58.2292 64.9123 58.2364Z" fill="#263238"/>
<path d="M64.8467 49.7411C64.7636 49.9453 64.0066 49.8175 63.1088 49.8908C62.2092 49.9458 61.4785 50.1795 61.3668 49.9891C61.3172 49.898 61.4508 49.7085 61.7498 49.519C62.0465 49.33 62.5149 49.1575 63.0534 49.1186C63.5923 49.0806 64.0803 49.1847 64.4007 49.33C64.7238 49.4748 64.8825 49.6441 64.8467 49.7411Z" fill="#263238"/>
<path d="M72.0313 48.8482C71.8906 49.0158 71.3731 48.8161 70.7421 48.783C70.1124 48.728 69.5721 48.854 69.4564 48.6681C69.4059 48.5783 69.4966 48.408 69.7366 48.2534C69.973 48.0992 70.3631 47.9808 70.7961 48.0108C71.2292 48.0416 71.5988 48.2128 71.8115 48.3987C72.0278 48.5846 72.0939 48.766 72.0313 48.8482Z" fill="#263238"/>
<path d="M53.9163 45.8898C54.9951 42.7214 59.7049 38.4044 63.0382 38.7039L68.3052 42.0073C67.9464 43.8172 66.5123 45.371 64.7368 45.8733C63.7885 46.1414 62.6521 46.1977 62.0756 46.9972C61.4866 47.8132 61.7972 49.0252 61.2475 49.868C60.4856 51.0362 58.4688 50.9401 57.8896 52.2088C57.6367 52.7634 57.7497 53.4338 57.4865 53.9834C57.1362 54.7159 55.2467 55.6155 54.4776 55.3549C53.709 55.0944 53.7326 53.7765 53.4936 53.0812C53.0847 51.8929 53.275 51.2851 53.4305 50.6291C53.7983 49.0748 53.4019 47.4012 53.9163 45.8898Z" fill="#263238"/>
<path d="M56.7477 56.0526C56.7624 55.6414 56.3249 54.6538 55.9214 54.5747C54.8439 54.3638 52.8866 54.375 52.7614 57.1273C52.5907 60.8902 56.4036 60.2855 56.4152 60.1778C56.4237 60.0938 56.6958 57.4719 56.7477 56.0526Z" fill="#FFBE9D"/>
<path d="M55.3303 58.7C55.3142 58.687 55.2628 58.7429 55.1497 58.7884C55.0394 58.8327 54.8521 58.8586 54.659 58.7764C54.268 58.6124 53.9619 57.9662 53.9744 57.2873C53.9802 56.9441 54.0669 56.6215 54.2005 56.3569C54.3279 56.087 54.5147 55.9024 54.7162 55.8765C54.9173 55.8394 55.0537 55.9654 55.0948 56.0736C55.1403 56.1813 55.1131 56.2555 55.1327 56.2626C55.1426 56.2729 55.2163 56.2032 55.1931 56.0468C55.1806 55.9712 55.1408 55.8805 55.0559 55.8041C54.9687 55.7268 54.8378 55.683 54.6975 55.6919C54.4066 55.6991 54.1331 55.9538 53.9865 56.2443C53.8238 56.5352 53.7183 56.8976 53.7116 57.2829C53.7014 58.0421 54.0571 58.7692 54.5943 58.9511C54.8557 59.032 55.0805 58.9623 55.1984 58.8787C55.3196 58.7907 55.3428 58.7076 55.3303 58.7Z" fill="#EB996E"/>
<path d="M53.1105 44.914C53.123 43.7369 51.6527 42.9669 50.506 42.7001C49.3593 42.4337 48.1469 42.7823 47.1145 43.3481C46.5103 43.6788 45.9021 44.1498 45.7672 44.825C45.6318 45.5003 46.282 46.3051 46.9268 46.0634C45.6912 46.4861 45.0647 48.1365 45.7082 49.2729C46.3517 50.4094 48.0892 50.7208 49.0871 49.8789C48.7649 50.9572 48.0615 51.9176 47.1306 52.5499C49.0661 52.8257 51.1213 51.9994 52.3266 50.4598C53.5323 48.9203 53.842 46.727 53.1105 44.914Z" fill="#263238"/>
<path d="M50.4984 50.8987C50.4716 50.9027 50.371 50.4759 50.3576 49.7694C50.3424 49.0651 50.447 48.0802 50.7911 47.0541C51.1383 46.0285 51.6514 45.1812 52.0893 44.6297C52.5273 44.0752 52.8656 43.7963 52.8848 43.8155C52.954 43.8642 51.6916 45.1146 51.0275 47.1337C50.3348 49.142 50.5833 50.9018 50.4984 50.8987Z" fill="#FF725E"/>
<path d="M67.2117 40.8696C67.558 42.4016 69.8863 44.3661 70.9083 45.5588C72.8586 47.8344 73.2429 48.5901 73.2237 53.6775C74.1443 51.9203 74.8494 50.1989 74.7788 48.2165C74.7082 46.2341 73.978 44.2481 72.5998 42.8216C71.2221 41.3947 69.1749 40.585 67.2117 40.8696Z" fill="#263238"/>
<path d="M83.1704 82.7361C83.1704 82.7361 79.1149 75.9742 77.9896 74.6063C76.9345 73.3237 75.575 72.5676 74.6674 72.1703C74.1624 71.9495 73.6315 71.7976 73.0886 71.7033L67.2562 70.4118C67.2562 70.4118 67.2459 74.3927 63.0747 74.6389C58.9034 74.8852 55.3913 69.0747 55.3913 69.0747C55.3913 69.0747 48.6531 70.1169 47.0407 70.9463C45.4284 71.7757 42.8945 72.829 41.5007 79.8108L40.522 86.641L52.1406 87.7149L53.2525 104.98L59.0147 108.993C59.0147 108.993 74.9892 113.146 76.0099 113.42C77.0306 113.695 77.3689 87.7149 77.3689 87.7149C77.3689 87.7149 81.4722 85.0622 83.1704 82.7361Z" fill="#263238"/>
<path d="M75.5232 79.8327C75.5384 79.8268 75.6175 80.0043 75.7475 80.3309C75.8802 80.6563 76.0496 81.1358 76.2382 81.7355C76.6167 82.9336 77.0319 84.6278 77.2669 86.5342C77.4984 88.4415 77.5042 90.1862 77.426 91.4402C77.3876 92.0671 77.3389 92.5735 77.2884 92.9211C77.2406 93.2693 77.2066 93.4605 77.191 93.4587C77.1749 93.457 77.1784 93.2626 77.1986 92.9131C77.2213 92.5641 77.2446 92.0578 77.2616 91.4334C77.2973 90.1844 77.2656 88.4554 77.0359 86.5628C76.8026 84.6716 76.4165 82.9859 76.08 81.7824C75.9128 81.1805 75.7681 80.6952 75.6617 80.3613C75.5585 80.0262 75.508 79.838 75.5232 79.8327Z" fill="#455A64"/>
<path d="M75.0277 108.114L53.1515 103.352L52.1407 87.7158L42.4124 86.8167C42.4124 86.8167 42.7721 97.5058 43.1466 100.684C43.6846 105.254 46.3865 111.491 47.9667 112.738C49.5474 113.983 76.0099 113.422 76.0099 113.422L75.0277 108.114Z" fill="#FFBE9D"/>
<path d="M87.4454 110.948C87.2917 111.253 86.9717 111.452 86.6312 111.422C86.5633 111.417 86.4922 111.403 86.4194 111.379C85.9354 111.224 85.981 110.239 85.981 110.239L83.6625 109.86C83.6625 109.86 80.6478 111.804 79.5753 113.093C78.5027 114.382 75.7664 113.338 75.7664 113.338L74.8181 108.397L79.0855 104.538C79.0855 104.538 78.8236 104.768 79.1176 104.046C79.4121 103.324 80.7528 103.597 80.7528 103.597C80.9615 103.24 81.8374 103.112 81.8374 103.112L85.5805 103.544C86.3519 103.633 87.0414 104.066 87.4561 104.722L89.039 107.228C89.039 107.228 89.8751 109.031 89.7406 109.451C89.5377 110.084 88.8683 109.943 88.8683 109.943C88.8683 109.943 88.6842 111.129 88.3727 111.17C88.0612 111.211 87.4454 110.948 87.4454 110.948Z" fill="#FFBE9D"/>
<path d="M79.479 107.398C79.4831 107.438 79.9809 107.392 80.7804 107.426C81.5781 107.465 82.6814 107.605 83.8349 107.998C84.4113 108.192 84.9431 108.426 85.4097 108.671C85.8619 108.926 86.3339 109.135 86.4787 109.464C86.5515 109.626 86.5189 109.79 86.438 109.91C86.3589 110.031 86.2512 110.11 86.1556 110.149C85.9589 110.23 85.8316 110.175 85.8275 110.197C85.8182 110.203 85.9437 110.3 86.1859 110.237C86.303 110.205 86.4384 110.127 86.547 109.987C86.6583 109.855 86.7222 109.619 86.6355 109.401C86.5546 109.183 86.3687 109.014 86.1699 108.875C85.9661 108.742 85.7525 108.606 85.5147 108.477C85.0437 108.216 84.5016 107.97 83.9113 107.771C82.7306 107.369 81.5951 107.253 80.784 107.257C79.9693 107.266 79.475 107.373 79.479 107.398Z" fill="#EB996E"/>
<path d="M79.2168 109.785C79.2213 109.856 80.7443 109.792 82.6158 109.902C84.4883 110.005 85.9943 110.241 86.0064 110.171C86.0117 110.14 85.6413 110.041 85.0317 109.934C84.4226 109.827 83.5731 109.718 82.6292 109.664C81.6859 109.611 80.8296 109.623 80.212 109.66C79.5944 109.698 79.215 109.754 79.2168 109.785Z" fill="#EB996E"/>
<path d="M87.4234 110.853C87.4359 110.851 87.4524 110.713 87.4703 110.454C87.486 110.197 87.5016 109.822 87.4726 109.358C87.4569 109.126 87.4319 108.871 87.368 108.599C87.3085 108.325 87.178 108.038 87.0002 107.783C86.6628 107.273 86.194 106.744 85.5974 106.347C85.003 105.955 84.4087 105.624 83.8072 105.442C83.2101 105.261 82.652 105.217 82.1903 105.196C81.7273 105.18 81.3546 105.19 81.0972 105.199C80.8398 105.21 80.6977 105.223 80.6973 105.24C80.6955 105.278 81.2679 105.298 82.1796 105.364C82.6332 105.406 83.1753 105.468 83.7415 105.652C84.3032 105.832 84.8873 106.164 85.462 106.543C86.0376 106.928 86.4755 107.412 86.8188 107.908C87.1807 108.379 87.2482 108.921 87.3041 109.372C87.3948 110.279 87.372 110.854 87.4234 110.853Z" fill="#EB996E"/>
<path d="M82.0171 104.063C82.0166 104.099 82.577 104.113 83.4717 104.216C84.3329 104.348 85.7111 104.411 86.4963 105.598C87.3462 106.678 88.0693 107.698 88.3853 108.534C88.7204 109.365 88.6909 109.94 88.7396 109.936C88.7526 109.936 88.7745 109.795 88.7615 109.539C88.7508 109.283 88.6958 108.911 88.5435 108.476C88.2561 107.593 87.5375 106.535 86.6826 105.449C86.4645 105.177 86.2286 104.918 85.9551 104.714C85.6825 104.505 85.3656 104.384 85.0743 104.3C84.4839 104.133 83.9409 104.084 83.4878 104.048C82.5788 103.987 82.0166 104.033 82.0171 104.063Z" fill="#EB996E"/>
<path d="M80.3935 112.296C80.3984 112.301 80.4748 112.243 80.6156 112.126C80.776 111.997 80.9838 111.83 81.2421 111.622C81.7949 111.195 82.6168 110.587 83.7022 109.928L83.6491 109.938C84.3404 110.056 85.1202 110.189 85.9648 110.332L85.8853 110.234C85.8804 110.423 85.8911 110.609 85.9286 110.801C85.9675 110.989 86.0279 111.193 86.1914 111.358C86.2763 111.438 86.3983 111.486 86.4989 111.499C86.6021 111.526 86.7138 111.536 86.8247 111.518C87.0459 111.487 87.2537 111.37 87.4011 111.199C87.4391 111.157 87.4717 111.11 87.5021 111.062L87.5231 111.025L87.5334 111.006L87.5388 110.997L87.5392 110.995C87.5692 110.984 87.2805 111.09 87.4034 111.045L87.4061 111.046L87.411 111.048L87.4843 111.078C87.5821 111.117 87.6813 111.152 87.7837 111.184C87.886 111.215 87.9906 111.244 88.101 111.263C88.1564 111.272 88.2127 111.28 88.273 111.282C88.3293 111.284 88.3973 111.286 88.4875 111.24C88.618 111.147 88.6649 111.037 88.7145 110.933C88.761 110.828 88.7986 110.722 88.8298 110.615C88.8938 110.4 88.9402 110.184 88.9787 109.959L88.8433 110.053C89.144 110.105 89.4984 110.033 89.7066 109.758C89.8005 109.63 89.8774 109.473 89.8657 109.292C89.8581 109.129 89.8219 108.987 89.7835 108.843C89.6213 108.275 89.392 107.729 89.1445 107.176L89.1413 107.17L89.1369 107.163C88.8678 106.737 88.5818 106.284 88.2931 105.826C88.1135 105.542 87.9347 105.26 87.7578 104.979C87.5799 104.708 87.4204 104.403 87.1706 104.159C86.9301 103.916 86.6414 103.726 86.3304 103.601C86.0216 103.468 85.6784 103.435 85.3758 103.402C84.1357 103.263 82.9533 103.13 81.8477 103.006L81.8325 103.004L81.8199 103.006C81.6032 103.043 81.4003 103.094 81.201 103.169C81.0071 103.247 80.8015 103.336 80.6634 103.545L80.793 103.504C80.3966 103.342 79.9376 103.34 79.5909 103.571C79.2423 103.801 79.0814 104.171 78.9961 104.519L79.0242 104.47C77.7988 105.573 76.7987 106.472 76.0832 107.115C75.7534 107.419 75.4898 107.662 75.2909 107.845C75.1117 108.014 75.0201 108.106 75.0259 108.113C75.0317 108.119 75.1345 108.04 75.3249 107.883C75.5318 107.709 75.8057 107.478 76.1485 107.189C76.8765 106.56 77.894 105.681 79.1413 104.603L79.1614 104.586L79.1694 104.554C79.2481 104.247 79.4063 103.909 79.6941 103.731C79.9738 103.543 80.3756 103.549 80.7076 103.688L80.7894 103.722L80.8377 103.647C80.9177 103.522 81.0955 103.428 81.2738 103.363C81.4544 103.296 81.6537 103.248 81.8503 103.216L81.8231 103.217C82.9278 103.347 84.1098 103.486 85.349 103.633C85.665 103.667 85.9604 103.696 86.2424 103.818C86.5235 103.932 86.7844 104.105 87.0016 104.325C87.2224 104.538 87.3725 104.825 87.5562 105.106C87.7332 105.387 87.9115 105.669 88.0911 105.954C88.3807 106.411 88.6667 106.864 88.9358 107.29L88.9286 107.276C89.1722 107.817 89.4019 108.364 89.5578 108.905C89.5945 109.039 89.628 109.178 89.6334 109.3C89.6459 109.407 89.5918 109.522 89.523 109.618C89.3885 109.808 89.1172 109.868 88.8888 109.831L88.7722 109.812L88.7534 109.924C88.7181 110.136 88.6734 110.35 88.6144 110.552C88.5586 110.743 88.475 110.975 88.3722 111.053C88.3669 111.055 88.3271 111.068 88.2779 111.063C88.2328 111.063 88.1841 111.056 88.1363 111.048C88.0397 111.032 87.9419 111.007 87.8458 110.978C87.7497 110.949 87.6541 110.916 87.5611 110.879L87.4923 110.852L87.4883 110.85L87.4865 110.849C87.6085 110.804 87.3189 110.909 87.3489 110.899L87.3484 110.9L87.3444 110.907L87.3363 110.922L87.3203 110.952C87.2966 110.99 87.2711 111.027 87.2416 111.06C87.1263 111.197 86.9636 111.288 86.7947 111.314C86.7103 111.328 86.6253 111.32 86.54 111.299C86.4475 111.286 86.3858 111.26 86.3282 111.21C86.1074 110.98 86.0757 110.57 86.0743 110.242L86.0739 110.157L85.9948 110.144C85.1484 110.012 84.3668 109.89 83.6736 109.782L83.6437 109.777L83.62 109.792C82.5345 110.475 81.7265 111.104 81.1872 111.555C80.9186 111.782 80.717 111.964 80.5852 112.092C80.4547 112.221 80.3881 112.29 80.3935 112.296Z" fill="#EB996E"/>
<path d="M115.828 96.573L87.0135 96.8072C86.0786 96.8072 85.1858 97.2563 85.0454 98.1805L81.8962 119.182H67.0541C66.5764 119.182 66.189 119.569 66.189 120.047C66.189 120.525 66.5764 120.912 67.0541 120.912H81.6366H84.4046H114.457L117.697 98.7471C117.871 97.6031 116.985 96.573 115.828 96.573Z" fill="#E0E0E0"/>
<path d="M115.829 96.5731C115.829 96.5731 115.985 96.553 116.283 96.6156C116.571 96.6826 117.025 96.8609 117.383 97.3453C117.562 97.5826 117.697 97.8995 117.739 98.265C117.786 98.6359 117.68 99.0274 117.634 99.4502C117.513 100.299 117.374 101.277 117.218 102.375C116.584 106.778 115.67 113.124 114.546 120.925L114.535 121.001H114.458C102.191 121.008 86.0716 121.018 68.4691 121.028C68.0557 121.028 67.6432 121.028 67.2312 121.028C67.0404 121.036 66.7745 121.025 66.5765 120.904C66.3718 120.791 66.2127 120.602 66.1332 120.383C65.9607 119.944 66.1667 119.405 66.5805 119.187C66.778 119.067 67.0413 119.057 67.2298 119.065H67.8394C69.4629 119.065 71.07 119.065 72.656 119.065C75.8284 119.066 78.9182 119.068 81.8958 119.069L81.785 119.164C82.9183 111.643 83.9757 104.627 84.9244 98.3325C84.957 97.9339 85.1376 97.5026 85.4575 97.2354C85.7704 96.9579 86.1663 96.8104 86.5591 96.7492C86.96 96.6884 87.3416 96.721 87.721 96.7081C88.1013 96.7054 88.4785 96.7027 88.8526 96.7005C90.3487 96.6902 91.7958 96.6808 93.1905 96.6714C95.9791 96.6535 98.5581 96.6375 100.9 96.6227C105.579 96.5986 109.308 96.5798 111.876 96.5664C113.152 96.5642 114.138 96.5624 114.812 96.561C115.142 96.5628 115.394 96.5637 115.571 96.5646C115.741 96.5673 115.829 96.5731 115.829 96.5731C115.829 96.5731 115.742 96.5803 115.571 96.5852C115.394 96.5887 115.143 96.5941 114.813 96.6008C114.139 96.6106 113.153 96.6249 111.877 96.6433C109.309 96.6719 105.58 96.7134 100.902 96.7653C98.5603 96.7885 95.9813 96.814 93.1928 96.8417C91.798 96.8551 90.351 96.8689 88.8548 96.8828C88.4808 96.8864 88.1036 96.8899 87.7233 96.8935C87.3443 96.9065 86.9542 96.877 86.59 96.9351C86.2235 96.9927 85.8606 97.1313 85.5849 97.3784C85.3016 97.6251 85.1519 97.9687 85.1161 98.362C84.1768 104.658 83.1301 111.675 82.0076 119.198L81.9933 119.294H81.8967C78.9191 119.295 75.8289 119.296 72.6569 119.297C71.0709 119.297 69.4638 119.297 67.8403 119.298H67.2307C67.0158 119.292 66.8553 119.301 66.694 119.391C66.3781 119.558 66.2208 119.969 66.3526 120.304C66.4129 120.47 66.5345 120.615 66.6909 120.701C66.8531 120.793 67.0149 120.802 67.2325 120.795C67.6441 120.795 68.0566 120.795 68.4704 120.795C86.0729 120.806 102.193 120.815 114.459 120.823L114.371 120.899C115.527 113.102 116.468 106.76 117.12 102.36C117.285 101.262 117.432 100.286 117.559 99.4386C117.61 99.014 117.719 98.6248 117.676 98.2713C117.64 97.9173 117.512 97.6085 117.342 97.3753C117 96.8984 116.56 96.7152 116.277 96.6406C115.985 96.5713 115.828 96.5847 115.829 96.5731Z" fill="#263238"/>
<path d="M100.199 110.28C101.195 110.28 102.003 109.472 102.003 108.475C102.003 107.479 101.195 106.671 100.199 106.671C99.2027 106.671 98.395 107.479 98.395 108.475C98.395 109.472 99.2027 110.28 100.199 110.28Z" fill="white"/>
<path d="M83.0644 120.718C83.1051 120.725 84.0225 115.377 85.1125 108.775C86.2033 102.171 87.0542 96.8139 87.0135 96.8068C86.9729 96.8001 86.0559 102.147 84.965 108.751C83.875 115.353 83.0237 120.712 83.0644 120.718Z" fill="#263238"/>
</svg>
