<svg width="82" height="34" viewBox="0 0 82 34" fill="none" xmlns="http://www.w3.org/2000/svg">
<path d="M10.2 27.2C8.33 27.2 6.817 28.73 6.817 30.6C6.817 32.47 8.33 34 10.2 34C12.07 34 13.6 32.47 13.6 30.6C13.6 28.73 12.07 27.2 10.2 27.2ZM0 0V3.4H3.4L9.52 16.303L7.225 20.468C6.953 20.944 6.8 21.505 6.8 22.1C6.8 23.97 8.33 25.5 10.2 25.5H30.6V22.1H10.914C10.676 22.1 10.489 21.913 10.489 21.675L10.54 21.471L12.07 18.7H24.735C26.01 18.7 27.132 18.003 27.71 16.949L33.796 5.916C33.9363 5.65656 34.0068 5.36517 34.0008 5.0703C33.9948 4.77543 33.9124 4.48716 33.7617 4.23366C33.6109 3.98016 33.397 3.77009 33.1408 3.62397C32.8846 3.47785 32.5949 3.40068 32.3 3.4H7.157L5.559 0H0ZM27.2 27.2C25.33 27.2 23.817 28.73 23.817 30.6C23.817 32.47 25.33 34 27.2 34C29.07 34 30.6 32.47 30.6 30.6C30.6 28.73 29.07 27.2 27.2 27.2Z" fill="#4D5059"/>
<path d="M54.2344 18.4785H56.1094C56.0117 19.377 55.7546 20.181 55.3379 20.8906C54.9212 21.6003 54.332 22.1634 53.5703 22.5801C52.8086 22.9902 51.8581 23.1953 50.7188 23.1953C49.8854 23.1953 49.127 23.0391 48.4434 22.7266C47.7663 22.4141 47.1836 21.9714 46.6953 21.3984C46.207 20.819 45.8294 20.1257 45.5625 19.3184C45.3021 18.5046 45.1719 17.5996 45.1719 16.6035V15.1875C45.1719 14.1914 45.3021 13.2897 45.5625 12.4824C45.8294 11.6686 46.2103 10.972 46.7051 10.3926C47.2064 9.81315 47.8086 9.36719 48.5117 9.05469C49.2148 8.74219 50.0059 8.58594 50.8848 8.58594C51.959 8.58594 52.8672 8.78776 53.6094 9.19141C54.3516 9.59505 54.9277 10.1549 55.3379 10.8711C55.7546 11.5807 56.0117 12.4043 56.1094 13.3418H54.2344C54.1432 12.6777 53.974 12.1081 53.7266 11.6328C53.4792 11.151 53.1276 10.7799 52.6719 10.5195C52.2161 10.2591 51.6204 10.1289 50.8848 10.1289C50.2533 10.1289 49.6966 10.2493 49.2148 10.4902C48.7396 10.7311 48.3392 11.0729 48.0137 11.5156C47.6947 11.9583 47.4538 12.4889 47.291 13.1074C47.1283 13.7259 47.0469 14.4128 47.0469 15.168V16.6035C47.0469 17.3001 47.1185 17.9544 47.2617 18.5664C47.4115 19.1784 47.6361 19.7155 47.9355 20.1777C48.235 20.64 48.6159 21.0046 49.0781 21.2715C49.5404 21.5319 50.0872 21.6621 50.7188 21.6621C51.5195 21.6621 52.1576 21.5352 52.6328 21.2812C53.1081 21.0273 53.4661 20.6628 53.707 20.1875C53.9544 19.7122 54.1302 19.1426 54.2344 18.4785ZM64.6348 21.1934V15.7539C64.6348 15.3372 64.5501 14.9759 64.3809 14.6699C64.2181 14.3574 63.9707 14.1165 63.6387 13.9473C63.3066 13.778 62.8965 13.6934 62.4082 13.6934C61.9525 13.6934 61.5521 13.7715 61.207 13.9277C60.8685 14.084 60.6016 14.2891 60.4062 14.543C60.2174 14.7969 60.123 15.0703 60.123 15.3633H58.3164C58.3164 14.9857 58.4141 14.6113 58.6094 14.2402C58.8047 13.8691 59.0846 13.5339 59.4492 13.2344C59.8203 12.9284 60.263 12.6875 60.7773 12.5117C61.2982 12.3294 61.8776 12.2383 62.5156 12.2383C63.2839 12.2383 63.9609 12.3685 64.5469 12.6289C65.1393 12.8893 65.6016 13.2832 65.9336 13.8105C66.2721 14.3314 66.4414 14.9857 66.4414 15.7734V20.6953C66.4414 21.0469 66.4707 21.4212 66.5293 21.8184C66.5944 22.2155 66.6888 22.5573 66.8125 22.8438V23H64.9277C64.8366 22.7917 64.765 22.515 64.7129 22.1699C64.6608 21.8184 64.6348 21.4928 64.6348 21.1934ZM64.9473 16.5938L64.9668 17.8633H63.1406C62.6263 17.8633 62.1673 17.9056 61.7637 17.9902C61.36 18.0684 61.0215 18.1888 60.748 18.3516C60.4746 18.5143 60.2663 18.7194 60.123 18.9668C59.9798 19.2077 59.9082 19.4909 59.9082 19.8164C59.9082 20.1484 59.9831 20.4512 60.1328 20.7246C60.2826 20.998 60.5072 21.2161 60.8066 21.3789C61.1126 21.5352 61.487 21.6133 61.9297 21.6133C62.4831 21.6133 62.9714 21.4961 63.3945 21.2617C63.8177 21.0273 64.153 20.7409 64.4004 20.4023C64.6543 20.0638 64.791 19.735 64.8105 19.416L65.582 20.2852C65.5365 20.5586 65.4128 20.8613 65.2109 21.1934C65.0091 21.5254 64.7389 21.8444 64.4004 22.1504C64.0684 22.4499 63.6712 22.7005 63.209 22.9023C62.7533 23.0977 62.2389 23.1953 61.666 23.1953C60.9499 23.1953 60.3216 23.0553 59.7812 22.7754C59.2474 22.4954 58.8307 22.1211 58.5312 21.6523C58.2383 21.1771 58.0918 20.6465 58.0918 20.0605C58.0918 19.4941 58.2025 18.9961 58.4238 18.5664C58.6452 18.1302 58.9642 17.7689 59.3809 17.4824C59.7975 17.1895 60.2988 16.9681 60.8848 16.8184C61.4707 16.6686 62.125 16.5938 62.8477 16.5938H64.9473ZM71.0898 14.0938V23H69.2832V12.4336H71.041L71.0898 14.0938ZM74.3906 12.375L74.3809 14.0547C74.2311 14.0221 74.0879 14.0026 73.9512 13.9961C73.821 13.9831 73.6712 13.9766 73.502 13.9766C73.0853 13.9766 72.7174 14.0417 72.3984 14.1719C72.0794 14.3021 71.8092 14.4844 71.5879 14.7188C71.3665 14.9531 71.1908 15.2331 71.0605 15.5586C70.9368 15.8776 70.8555 16.2292 70.8164 16.6133L70.3086 16.9062C70.3086 16.2682 70.3704 15.6693 70.4941 15.1094C70.6243 14.5495 70.8229 14.0547 71.0898 13.625C71.3568 13.1888 71.6953 12.8503 72.1055 12.6094C72.5221 12.362 73.0169 12.2383 73.5898 12.2383C73.7201 12.2383 73.8698 12.2546 74.0391 12.2871C74.2083 12.3132 74.3255 12.3424 74.3906 12.375ZM80.9727 12.4336V13.8203H75.2598V12.4336H80.9727ZM77.1934 9.86523H79V20.3828C79 20.7409 79.0553 21.0111 79.166 21.1934C79.2767 21.3757 79.4199 21.4961 79.5957 21.5547C79.7715 21.6133 79.9603 21.6426 80.1621 21.6426C80.3118 21.6426 80.4681 21.6296 80.6309 21.6035C80.8001 21.571 80.9271 21.5449 81.0117 21.5254L81.0215 23C80.8783 23.0456 80.6895 23.0879 80.4551 23.127C80.2272 23.1725 79.9505 23.1953 79.625 23.1953C79.1823 23.1953 78.7754 23.1074 78.4043 22.9316C78.0332 22.7559 77.737 22.4629 77.5156 22.0527C77.3008 21.6361 77.1934 21.0762 77.1934 20.373V9.86523Z" fill="#4D5059"/>
</svg>
