<?xml version="1.0" standalone="yes"?>
<svg xmlns="http://www.w3.org/2000/svg" width="69" height="70">
<path style="fill:#020203; stroke:none;" d="M0 0L0 12C8.94814 12 20.1696 8.714 28 13L28 4L21 4L21 0L0 0z"/>
<path style="fill:#385b85; stroke:none;" d="M21 0L21 4L28 4L29 22L0 15C4.07214 21.5347 14.2695 22.5462 21 25C16.341 31.483 18.726 37.1562 26 40C17.1011 49.1754 36.2285 65.2396 18 63L18 70C30.7371 69.9564 50.6761 52.6241 40 40C45.4147 37.1654 51.3101 30.2742 44 26L44 25C51.1901 23.7826 62.6853 21.3746 67 15C56.9664 17.9027 47.5207 21.3226 37 20L38 4L45 4L45 0L21 0z"/>
<path style="fill:#020203; stroke:none;" d="M45 0L45 4L38 4L38 13C46.8705 9.03151 57.1769 12 67 12C65.5573 20.845 51.3218 23.0629 44 25L44 26C50.0273 31.3799 45.107 36.0733 40 40C47.584 52.0567 35.717 61.571 26 69L26 70L69 70L69 0L45 0z"/>
<path style="fill:#c42e3d; stroke:none;" d="M0 12L0 14L28 14C22.4793 7.37295 8.19282 12 0 12M37 13L37 14L67 14L67 12C56.5317 12 46.6137 8.91952 37 13z"/>
<path style="fill:#f4f0f2; stroke:none;" d="M0 14L0 15L29 21L29 13L0 14z"/>
<path style="fill:#5a8aa1; stroke:none;" d="M41 12L40 14L41 12z"/>
<path style="fill:#f4f0f2; stroke:none;" d="M37 14C37.9413 26.0817 59.0403 17.23 66 15C57.7132 11.5227 45.5291 12.2499 37 14z"/>
<path style="fill:#5a8aa1; stroke:none;" d="M10 13L10 14L14 14L10 13M55 13L55 14L60 14L55 13M66 14L67 15L66 14M1 15L2 16L1 15M64.6667 15.3333L65.3333 15.6667L64.6667 15.3333M5 16L6 17L5 16M61 16L62 17L61 16z"/>
<path style="fill:#020203; stroke:none;" d="M0 17L0 70L18 70L18 63C35.6562 66.2646 19.3257 49.3226 26 40C19.2174 36.0436 17.1534 32.0291 21 25L0 17z"/>
<path style="fill:#5a8aa1; stroke:none;" d="M6 17L6 18L10 18L6 17M57 17L57 18L60 18L57 17M10 18L11 19L10 18M12 19L12 20L15 20L12 19M18 19L19 20L18 19M37 19L38 20L37 19M48 19L49 20L48 19M52.6667 19.3333L53.3333 19.6667L52.6667 19.3333M20 20L20 21L28 21L20 20M40 20L40 21L47 21L40 20M28 21L29 22L28 21z"/>
<path style="fill:#020203; stroke:none;" d="M27 24L28 25L27 24M38.6667 24.3333L39.3333 24.6667L38.6667 24.3333M22 29L28 35L28 29L22 29M38 29L38 35L44 29L38 29z"/>
</svg>
