<svg width="75" height="50" viewBox="0 0 75 50" fill="none" xmlns="http://www.w3.org/2000/svg">
<path d="M60.4688 18.875C59.4191 13.5554 56.555 8.76518 52.3658 5.32264C48.1766 1.8801 42.9222 -0.00122576 37.5 5.99177e-07C28.4687 5.99177e-07 20.625 5.125 16.7187 12.625C12.1257 13.1214 7.87815 15.2975 4.79215 18.7354C1.70616 22.1732 -0.000536568 26.6302 1.2654e-07 31.25C1.2654e-07 41.5937 8.40625 50 18.75 50H59.375C68 50 75 43 75 34.375C75 26.125 68.5938 19.4375 60.4688 18.875ZM43.75 28.125V40.625H31.25V28.125H21.875L37.5 12.5L53.125 28.125H43.75Z" fill="#1881E1" fill-opacity="0.6"/>
</svg>
